<svg id="kity_svg_6" xmlns="http://www.w3.org/2000/svg" xmlns:xlink="http://www.w3.org/1999/xlink" version="1.1" width="1462" height="4346" style="background: rgb(251, 251, 251); visibility: visible;" viewBox="0 0 1462 4346"><defs id="kity_defs_7"><linearGradient id="kity_linearGradient_17" x1="0" y1="0" x2="0" y2="1"><stop id="kity_stop_18" offset="0" stop-color="rgb(255, 255, 255)"></stop><stop id="kity_stop_19" offset="1" stop-color="rgb(204, 204, 204)"></stop></linearGradient><marker id="kity_marker_2" orient="auto" refX="6" refY="0" viewBox="-7 -7 14 14" markerWidth="7" markerHeight="7" markerUnits="userSpaceOnUse"><path id="kity_path_3" fill="rgb(115, 161, 191)" stroke="none" d="M6,0A6,6,0,1,1,-6,0A6,6,0,1,1,6,0"></path></marker></defs><g id="kity_g_8"><g id="minder1" text-rendering="optimize-speed"><g id="minder_connect_group1"><path id="kity_path_31" fill="none" stroke="rgb(115, 161, 191)" stroke-width="1" d="M61.999999694526196,2370.499979071319A67.5,1593,0,0,0,129.4999996945262,3963.499979071319"></path><path id="kity_path_47" fill="none" stroke="rgb(115, 161, 191)" stroke-width="1" d="M61.999999694526196,2370.499979071319A134.5,1631,0,0,1,196.4999996945262,739.4999790713191"></path><path id="kity_path_653" fill="none" stroke="rgb(115, 161, 191)" stroke-width="1" d="M301.4999996945262,739.4999790713191C321.4999996945262,739.4999790713191,321.4999996945262,31.499979071319103,341.4999996945262,31.499979071319103"></path><path id="kity_path_654" fill="none" stroke="rgb(115, 161, 191)" stroke-width="1" d="M543.4999996945262,130.4999790713191C563.4999996945262,130.4999790713191,563.4999996945262,130.4999790713191,583.4999996945262,130.4999790713191"></path><path id="kity_path_655" fill="none" stroke="rgb(115, 161, 191)" stroke-width="1" d="M434.4999996945262,202.4999790713191C454.4999996945262,202.4999790713191,454.4999996945262,130.4999790713191,474.4999996945262,130.4999790713191"></path><path id="kity_path_656" fill="none" stroke="rgb(115, 161, 191)" stroke-width="1" d="M520.4999996945262,260.4999790713191C540.4999996945262,260.4999790713191,540.4999996945262,260.4999790713191,560.4999996945262,260.4999790713191"></path><path id="kity_path_657" fill="none" stroke="rgb(115, 161, 191)" stroke-width="1" d="M434.4999996945262,202.4999790713191C455.4999996945262,202.4999790713191,455.4999996945262,260.4999790713191,476.4999996945262,260.4999790713191"></path><path id="kity_path_658" fill="none" stroke="rgb(115, 161, 191)" stroke-width="1" d="M301.4999996945262,739.4999790713191C321.4999996945262,739.4999790713191,321.4999996945262,202.4999790713191,341.4999996945262,202.4999790713191"></path><path id="kity_path_659" fill="none" stroke="rgb(115, 161, 191)" stroke-width="1" d="M527.4999996945262,332.4999790713191C547.4999996945262,332.4999790713191,547.4999996945262,332.4999790713191,567.4999996945262,332.4999790713191"></path><path id="kity_path_660" fill="none" stroke="rgb(115, 161, 191)" stroke-width="1" d="M410.4999996945262,369.4999790713191C430.4999996945262,369.4999790713191,430.4999996945262,332.4999790713191,450.4999996945262,332.4999790713191"></path><path id="kity_path_661" fill="none" stroke="rgb(115, 161, 191)" stroke-width="1" d="M565.4999996945262,398.4999790713191C585.4999996945262,398.4999790713191,585.4999996945262,398.4999790713191,605.4999996945262,398.4999790713191"></path><path id="kity_path_662" fill="none" stroke="rgb(115, 161, 191)" stroke-width="1" d="M410.4999996945262,369.4999790713191C430.9999996945262,369.4999790713191,430.9999996945262,398.4999790713191,451.4999996945262,398.4999790713191"></path><path id="kity_path_663" fill="none" stroke="rgb(115, 161, 191)" stroke-width="1" d="M301.4999996945262,739.4999790713191C320.9999996945262,739.4999790713191,320.9999996945262,369.4999790713191,340.4999996945262,369.4999790713191"></path><path id="kity_path_664" fill="none" stroke="rgb(115, 161, 191)" stroke-width="1" d="M410.4999996945262,1448.499979071319C430.4999996945262,1448.499979071319,430.4999996945262,623.9999790713191,450.4999996945262,623.9999790713191"></path><path id="kity_path_665" fill="none" stroke="rgb(115, 161, 191)" stroke-width="1" d="M681.4999996945262,756.4999790713191C701.4999996945262,756.4999790713191,701.4999996945262,756.4999790713191,721.4999996945262,756.4999790713191"></path><path id="kity_path_666" fill="none" stroke="rgb(115, 161, 191)" stroke-width="1" d="M518.4999996945262,867.4999790713191C538.4999996945262,867.4999790713191,538.4999996945262,756.4999790713191,558.4999996945262,756.4999790713191"></path><path id="kity_path_667" fill="none" stroke="rgb(115, 161, 191)" stroke-width="1" d="M719.4999996945262,828.4999790713191C739.4999996945262,828.4999790713191,739.4999996945262,802.4999790713191,759.4999996945262,802.4999790713191"></path><path id="kity_path_668" fill="none" stroke="rgb(115, 161, 191)" stroke-width="1" d="M719.4999996945262,828.4999790713191C739.4999996945262,828.4999790713191,739.4999996945262,854.4999790713191,759.4999996945262,854.4999790713191"></path><path id="kity_path_669" fill="none" stroke="rgb(115, 161, 191)" stroke-width="1" d="M518.4999996945262,867.4999790713191C538.4999996945262,867.4999790713191,538.4999996945262,828.4999790713191,558.4999996945262,828.4999790713191"></path><path id="kity_path_670" fill="none" stroke="rgb(115, 161, 191)" stroke-width="1" d="M624.4999996945262,893.4999790713191C644.4999996945262,893.4999790713191,644.4999996945262,893.4999790713191,664.4999996945262,893.4999790713191"></path><path id="kity_path_671" fill="none" stroke="rgb(115, 161, 191)" stroke-width="1" d="M518.4999996945262,867.4999790713191C537.9999996945262,867.4999790713191,537.9999996945262,893.4999790713191,557.4999996945262,893.4999790713191"></path><path id="kity_path_672" fill="none" stroke="rgb(115, 161, 191)" stroke-width="1" d="M613.4999996945262,969.4999790713191C633.4999996945262,969.4999790713191,633.4999996945262,969.4999790713191,653.4999996945262,969.4999790713191"></path><path id="kity_path_673" fill="none" stroke="rgb(115, 161, 191)" stroke-width="1" d="M518.4999996945262,867.4999790713191C543.4999996945262,867.4999790713191,543.4999996945262,969.4999790713191,568.4999996945262,969.4999790713191"></path><path id="kity_path_674" fill="none" stroke="rgb(115, 161, 191)" stroke-width="1" d="M410.4999996945262,1448.499979071319C433.9999996945262,1448.499979071319,433.9999996945262,867.4999790713191,457.4999996945262,867.4999790713191"></path><path id="kity_path_683" fill="none" stroke="rgb(115, 161, 191)" stroke-width="1" d="M410.4999996945262,1448.499979071319C445.4999996945262,1448.499979071319,445.4999996945262,1156.499979071319,480.4999996945262,1156.499979071319"></path><path id="kity_path_689" fill="none" stroke="rgb(115, 161, 191)" stroke-width="1" d="M410.4999996945262,1448.499979071319C482.9999996945262,1448.499979071319,482.9999996945262,1461.499979071319,555.4999996945262,1461.499979071319"></path><path id="kity_path_690" fill="none" stroke="rgb(115, 161, 191)" stroke-width="1" d="M410.4999996945262,1448.499979071319C492.9999996945262,1448.499979071319,492.9999996945262,1716.499979071319,575.4999996945262,1716.499979071319"></path><path id="kity_path_691" fill="none" stroke="rgb(115, 161, 191)" stroke-width="1" d="M301.4999996945262,739.4999790713191C321.4999996945262,739.4999790713191,321.4999996945262,1448.499979071319,341.4999996945262,1448.499979071319"></path><path id="kity_path_711" fill="none" stroke="rgb(115, 161, 191)" stroke-width="1" d="M410.4999996945262,1448.499979071319C499.4999996945262,1448.499979071319,499.4999996945262,2108.499979071319,588.4999996945262,2108.499979071319"></path><path id="kity_path_769" fill="none" stroke="rgb(115, 161, 191)" stroke-width="1" d="M699.4999996945262,1050.499979071319C719.4999996945262,1050.499979071319,719.4999996945262,1050.499979071319,739.4999996945262,1050.499979071319"></path><path id="kity_path_770" fill="none" stroke="rgb(115, 161, 191)" stroke-width="1" d="M536.4999996945262,1156.499979071319C556.4999996945262,1156.499979071319,556.4999996945262,1050.499979071319,576.4999996945262,1050.499979071319"></path><path id="kity_path_771" fill="none" stroke="rgb(115, 161, 191)" stroke-width="1" d="M688.4999996945262,1120.499979071319C708.4999996945262,1120.499979071319,708.4999996945262,1120.499979071319,728.4999996945262,1120.499979071319"></path><path id="kity_path_772" fill="none" stroke="rgb(115, 161, 191)" stroke-width="1" d="M536.4999996945262,1156.499979071319C556.4999996945262,1156.499979071319,556.4999996945262,1120.499979071319,576.4999996945262,1120.499979071319"></path><path id="kity_path_773" fill="none" stroke="rgb(115, 161, 191)" stroke-width="1" d="M637.4999996945262,1181.499979071319C657.4999996945262,1181.499979071319,657.4999996945262,1181.499979071319,677.4999996945262,1181.499979071319"></path><path id="kity_path_774" fill="none" stroke="rgb(115, 161, 191)" stroke-width="1" d="M536.4999996945262,1156.499979071319C556.4999996945262,1156.499979071319,556.4999996945262,1181.499979071319,576.4999996945262,1181.499979071319"></path><path id="kity_path_775" fill="none" stroke="rgb(115, 161, 191)" stroke-width="1" d="M621.4999996945262,1272.499979071319C641.4999996945262,1272.499979071319,641.4999996945262,1272.499979071319,661.4999996945262,1272.499979071319"></path><path id="kity_path_776" fill="none" stroke="rgb(115, 161, 191)" stroke-width="1" d="M536.4999996945262,1156.499979071319C556.4999996945262,1156.499979071319,556.4999996945262,1272.499979071319,576.4999996945262,1272.499979071319"></path><path id="kity_path_777" fill="none" stroke="rgb(115, 161, 191)" stroke-width="1" d="M850.4999996945262,1406.499979071319C870.4999996945262,1406.499979071319,870.4999996945262,1406.999979071319,890.4999996945262,1406.999979071319"></path><path id="kity_path_778" fill="none" stroke="rgb(115, 161, 191)" stroke-width="1" d="M717.4999996945262,1461.499979071319C737.4999996945262,1461.499979071319,737.4999996945262,1406.499979071319,757.4999996945262,1406.499979071319"></path><path id="kity_path_779" fill="none" stroke="rgb(115, 161, 191)" stroke-width="1" d="M801.4999996945262,1516.499979071319C821.4999996945262,1516.499979071319,821.4999996945262,1516.499979071319,841.4999996945262,1516.499979071319"></path><path id="kity_path_780" fill="none" stroke="rgb(115, 161, 191)" stroke-width="1" d="M717.4999996945262,1461.499979071319C737.4999996945262,1461.499979071319,737.4999996945262,1516.499979071319,757.4999996945262,1516.499979071319"></path><path id="kity_path_781" fill="none" stroke="rgb(115, 161, 191)" stroke-width="1" d="M647.4999996945262,1461.499979071319C667.4999996945262,1461.499979071319,667.4999996945262,1461.499979071319,687.4999996945262,1461.499979071319"></path><path id="kity_path_782" fill="none" stroke="rgb(115, 161, 191)" stroke-width="1" d="M656.4999996945262,1716.499979071319C676.4999996945262,1716.499979071319,676.4999996945262,1631.999979071319,696.4999996945262,1631.999979071319"></path><path id="kity_path_783" fill="none" stroke="rgb(115, 161, 191)" stroke-width="1" d="M656.4999996945262,1716.499979071319C676.4999996945262,1716.499979071319,676.4999996945262,1806.499979071319,696.4999996945262,1806.499979071319"></path><path id="kity_path_784" fill="none" stroke="rgb(115, 161, 191)" stroke-width="1" d="M804.4999996945262,2007.499979071319C827.9999996945262,2007.499979071319,827.9999996945262,1946.499979071319,851.4999996945262,1946.499979071319"></path><path id="kity_path_785" fill="none" stroke="rgb(115, 161, 191)" stroke-width="1" d="M804.4999996945262,2007.499979071319C824.4999996945262,2007.499979071319,824.4999996945262,2007.499979071319,844.4999996945262,2007.499979071319"></path><path id="kity_path_786" fill="none" stroke="rgb(115, 161, 191)" stroke-width="1" d="M804.4999996945262,2007.499979071319C824.4999996945262,2007.499979071319,824.4999996945262,2059.499979071319,844.4999996945262,2059.499979071319"></path><path id="kity_path_787" fill="none" stroke="rgb(115, 161, 191)" stroke-width="1" d="M694.4999996945262,2108.499979071319C714.4999996945262,2108.499979071319,714.4999996945262,2007.499979071319,734.4999996945262,2007.499979071319"></path><path id="kity_path_789" fill="none" stroke="rgb(115, 161, 191)" stroke-width="1" d="M694.4999996945262,2108.499979071319C714.4999996945262,2108.499979071319,714.4999996945262,2160.499979071319,734.4999996945262,2160.499979071319"></path><path id="kity_path_798" fill="none" stroke="rgb(115, 161, 191)" stroke-width="1" d="M954.4999996945262,2160.499979071319C974.4999996945262,2160.499979071319,974.4999996945262,2160.499979071319,994.4999996945262,2160.499979071319"></path><path id="kity_path_807" fill="none" stroke="rgb(115, 161, 191)" stroke-width="1" d="M410.4999996945262,1448.499979071319C492.9999996945262,1448.499979071319,492.9999996945262,2359.499979071319,575.4999996945262,2359.499979071319"></path><path id="kity_path_833" fill="none" stroke="rgb(115, 161, 191)" stroke-width="1" d="M1182.4999996945262,2359.499979071319C1202.4999996945262,2359.499979071319,1202.4999996945262,2359.999979071319,1222.4999996945262,2359.999979071319"></path><path id="kity_path_834" fill="none" stroke="rgb(115, 161, 191)" stroke-width="1" d="M922.4999996945262,2359.499979071319C942.4999996945262,2359.499979071319,942.4999996945262,2359.499979071319,962.4999996945262,2359.499979071319"></path><path id="kity_path_836" fill="none" stroke="rgb(115, 161, 191)" stroke-width="1" d="M300.4999996945262,3963.499979071319C320.4999996945262,3963.499979071319,320.4999996945262,3682.499979071319,340.4999996945262,3682.499979071319"></path><path id="kity_path_844" fill="none" stroke="rgb(115, 161, 191)" stroke-width="1" d="M385.4999996945262,3682.499979071319C405.4999996945262,3682.499979071319,405.4999996945262,3385.499979071319,425.4999996945262,3385.499979071319"></path><path id="kity_path_852" fill="none" stroke="rgb(115, 161, 191)" stroke-width="1" d="M385.4999996945262,3682.499979071319C407.4999996945262,3682.499979071319,407.4999996945262,3599.499979071319,429.4999996945262,3599.499979071319"></path><path id="kity_path_860" fill="none" stroke="rgb(115, 161, 191)" stroke-width="1" d="M385.4999996945262,3682.499979071319C413.4999996945262,3682.499979071319,413.4999996945262,3771.499979071319,441.4999996945262,3771.499979071319"></path><path id="kity_path_868" fill="none" stroke="rgb(115, 161, 191)" stroke-width="1" d="M530.4999996945262,3385.499979071319C550.4999996945262,3385.499979071319,550.4999996945262,3323.499979071319,570.4999996945262,3323.499979071319"></path><path id="kity_path_876" fill="none" stroke="rgb(115, 161, 191)" stroke-width="1" d="M530.4999996945262,3385.499979071319C549.4999996945262,3385.499979071319,549.4999996945262,3449.499979071319,568.4999996945262,3449.499979071319"></path><path id="kity_path_884" fill="none" stroke="rgb(115, 161, 191)" stroke-width="1" d="M628.4999996945262,3323.499979071319C648.4999996945262,3323.499979071319,648.4999996945262,3323.499979071319,668.4999996945262,3323.499979071319"></path><path id="kity_path_907" fill="none" stroke="rgb(115, 161, 191)" stroke-width="1" d="M625.4999996945262,3449.499979071319C645.4999996945262,3449.499979071319,645.4999996945262,3449.499979071319,665.4999996945262,3449.499979071319"></path><path id="kity_path_1020" fill="none" stroke="rgb(115, 161, 191)" stroke-width="1" d="M681.4999996945262,3539.499979071319C701.4999996945262,3539.499979071319,701.4999996945262,3539.499979071319,721.4999996945262,3539.499979071319"></path><path id="kity_path_1021" fill="none" stroke="rgb(115, 161, 191)" stroke-width="1" d="M535.4999996945262,3599.499979071319C561.4999996945262,3599.499979071319,561.4999996945262,3539.499979071319,587.4999996945262,3539.499979071319"></path><path id="kity_path_1022" fill="none" stroke="rgb(115, 161, 191)" stroke-width="1" d="M707.4999996945262,3598.499979071319C727.4999996945262,3598.499979071319,727.4999996945262,3598.499979071319,747.4999996945262,3598.499979071319"></path><path id="kity_path_1023" fill="none" stroke="rgb(115, 161, 191)" stroke-width="1" d="M535.4999996945262,3599.499979071319C556.4999996945262,3599.499979071319,556.4999996945262,3598.499979071319,577.4999996945262,3598.499979071319"></path><path id="kity_path_1024" fill="none" stroke="rgb(115, 161, 191)" stroke-width="1" d="M700.4999996945262,3669.499979071319C720.4999996945262,3669.499979071319,720.4999996945262,3669.499979071319,740.4999996945262,3669.499979071319"></path><path id="kity_path_1025" fill="none" stroke="rgb(115, 161, 191)" stroke-width="1" d="M535.4999996945262,3599.499979071319C558.9999996945262,3599.499979071319,558.9999996945262,3669.499979071319,582.4999996945262,3669.499979071319"></path><path id="kity_path_1026" fill="none" stroke="rgb(115, 161, 191)" stroke-width="1" d="M677.4999996945262,3771.499979071319C697.4999996945262,3771.499979071319,697.4999996945262,3771.499979071319,717.4999996945262,3771.499979071319"></path><path id="kity_path_1027" fill="none" stroke="rgb(115, 161, 191)" stroke-width="1" d="M520.4999996945262,3771.499979071319C540.4999996945262,3771.499979071319,540.4999996945262,3771.499979071319,560.4999996945262,3771.499979071319"></path><path id="kity_path_1029" fill="none" stroke="rgb(115, 161, 191)" stroke-width="1" d="M385.4999996945262,3682.499979071319C409.9999996945262,3682.499979071319,409.9999996945262,3919.499979071319,434.4999996945262,3919.499979071319"></path><path id="kity_path_1073" fill="none" stroke="rgb(115, 161, 191)" stroke-width="1" d="M479.4999996945262,3919.499979071319C499.4999996945262,3919.499979071319,499.4999996945262,3919.499979071319,519.4999996945262,3919.499979071319"></path><path id="kity_path_1075" fill="none" stroke="rgb(115, 161, 191)" stroke-width="1" d="M300.4999996945262,3963.499979071319C320.4999996945262,3963.499979071319,320.4999996945262,4245.499979071319,340.4999996945262,4245.499979071319"></path><path id="kity_path_1083" fill="none" stroke="rgb(115, 161, 191)" stroke-width="1" d="M434.4999996945262,4245.499979071319C454.4999996945262,4245.499979071319,454.4999996945262,4175.499979071319,474.4999996945262,4175.499979071319"></path><path id="kity_path_1091" fill="none" stroke="rgb(115, 161, 191)" stroke-width="1" d="M585.4999996945262,4175.499979071319C605.4999996945262,4175.499979071319,605.4999996945262,4105.499979071319,625.4999996945262,4105.499979071319"></path><path id="kity_path_1101" fill="none" stroke="rgb(115, 161, 191)" stroke-width="1" d="M585.4999996945262,4175.499979071319C605.4999996945262,4175.499979071319,605.4999996945262,4184.499979071319,625.4999996945262,4184.499979071319"></path><path id="kity_path_1112" fill="none" stroke="rgb(115, 161, 191)" stroke-width="1" d="M585.4999996945262,4175.499979071319C605.4999996945262,4175.499979071319,605.4999996945262,4254.499979071319,625.4999996945262,4254.499979071319"></path><path id="kity_path_1148" fill="none" stroke="rgb(115, 161, 191)" stroke-width="1" d="M434.4999996945262,4245.499979071319C454.4999996945262,4245.499979071319,454.4999996945262,4315.499979071319,474.4999996945262,4315.499979071319"></path><path id="kity_path_1156" fill="none" stroke="rgb(115, 161, 191)" stroke-width="1" d="M639.4999996945262,4315.499979071319C659.4999996945262,4315.499979071319,659.4999996945262,4315.499979071319,679.4999996945262,4315.499979071319"></path></g><g id="minder_node1"><path id="node_outline1" fill="rgb(115, 161, 191)" stroke="rgb(115, 161, 191)" d="M25.499999694526196,2350.499979071319h73a5,5,0,0,1,5,5v30a5,5,0,0,1,-5,5h-73a5,5,0,0,1,-5,-5v-30a5,5,0,0,1,5,-5z" stroke-width="3"></path><g id="node_text1" fill="white"><text id="kity_text_22" text-rendering="inherit" font-size="16" dy=".8em" y="2360.0999790355563" x="44.499999694526196">dojo</text></g></g><g id="kity_g_14" display="none"><path id="kity_path_15" fill="rgba(0, 92, 153, 0.5)" stroke="none" d="M581.4999996945262,3294.499979071319h44v15h-44z"></path><path id="kity_path_16" fill="none" stroke="rgb(0, 76, 128)" d="M581.4999996945262,3294.499979071319L625.4999996945262,3294.499979071319" stroke-width="1"></path></g><g id="minder_node2" opacity="1"><g id="node_expander1" style="cursor: pointer;"><path id="kity_path_36" fill="white" stroke="gray" d="M130.5000008866191,3963.500002808869A6,6,0,1,1,118.50000088661909,3963.500002808869A6,6,0,1,1,130.5000008866191,3963.500002808869"></path><path id="kity_path_37" fill="none" stroke="gray" d="M120.00000088661909,3963.500002808869L129.0000008866191,3963.500002808869"></path></g><path id="node_outline2" fill="rgb(238, 243, 246)" stroke="rgb(115, 161, 191)" d="M134.50000128895044,3950.500002808869h163a3,3,0,0,1,3,3v20a3,3,0,0,1,-3,3h-163a3,3,0,0,1,-3,-3v-20a3,3,0,0,1,3,-3z" stroke-width="1"></path><g id="node_text2" fill="black"><text id="kity_text_33" text-rendering="inherit" font-size="14" dy=".8em" y="3954.4000027775764" x="151.50000128895044">dojo/_base/declare</text></g></g><g id="minder_node4" opacity="1"><g id="node_expander3" style="cursor: pointer;"><path id="kity_path_52" fill="white" stroke="gray" d="M197.5000018849969,739.4999547675252A6,6,0,1,1,185.5000018849969,739.4999547675252A6,6,0,1,1,197.5000018849969,739.4999547675252"></path><path id="kity_path_53" fill="none" stroke="gray" d="M187.0000018849969,739.4999547675252L196.0000018849969,739.4999547675252"></path></g><path id="node_outline4" fill="rgb(238, 243, 246)" stroke="rgb(115, 161, 191)" d="M201.50000228732824,726.4999547675252h97a3,3,0,0,1,3,3v20a3,3,0,0,1,-3,3h-97a3,3,0,0,1,-3,-3v-20a3,3,0,0,1,3,-3z" stroke-width="1"></path><g id="node_text4" fill="black"><text id="kity_text_49" text-rendering="inherit" font-size="14" dy=".8em" y="730.3999547362328" x="218.50000228732824">AMD模块</text></g></g><g id="minder_node13" opacity="1"><g id="node_expander12" style="cursor: pointer;" display="none"><path id="kity_path_148" fill="white" stroke="gray" d="M341.5000040307641,31.49994421750307A6,6,0,1,1,329.5000040307641,31.49994421750307A6,6,0,1,1,341.5000040307641,31.49994421750307"></path><path id="kity_path_149" fill="none" stroke="gray"></path></g><path id="node_outline13" fill="none" stroke="none" d="M346.5000042691827,20.49994421750307h83a5,5,0,0,1,5,5v12a5,5,0,0,1,-5,5h-83a5,5,0,0,1,-5,-5v-12a5,5,0,0,1,5,-5z" stroke-width="3"></path><g id="node_text13" fill="black"><text id="kity_text_145" text-rendering="inherit" font-size="12" dy=".8em" y="23.69994419068098" x="351.5000042691827">异步模块定义</text></g></g><g id="minder_node9"><g id="node_expander8" style="cursor: pointer;" display="none"><path id="kity_path_107" fill="white" stroke="gray" d="M583.5000076368451,130.49994569271803A6,6,0,1,1,571.5000076368451,130.49994569271803A6,6,0,1,1,583.5000076368451,130.49994569271803"></path><path id="kity_path_108" fill="none" stroke="gray" d="M573.0000076368451,130.49994569271803L582.0000076368451,130.49994569271803"></path></g><path id="node_outline9" fill="none" stroke="none" d="M588.500008545816,70.49994642287493h210a5,5,0,0,1,5,5v110a5,5,0,0,1,-5,5h-210a5,5,0,0,1,-5,-5v-110a5,5,0,0,1,5,-5z" stroke-width="3"></path><g id="node_text9" fill="black"><text id="kity_text_104" text-rendering="inherit" font-size="12" dy=".8em" y="171.69994639605284" x="638.500008545816">app/DateManager&#xa0;</text></g><image id="kity_image_124" xlink:href="http://kityminder-img.gz.bcebos.com/ef153961dc6c4e5e0f8737dada2c2abbceff9776" x="593.500008545816" y="75.49994642287493" width="200" height="93"></image></g><g id="minder_node5"><g id="node_expander4" style="cursor: pointer;"><path id="kity_path_60" fill="white" stroke="gray" d="M474.50000601261854,130.49994569271803A6,6,0,1,1,462.50000601261854,130.49994569271803A6,6,0,1,1,474.50000601261854,130.49994569271803"></path><path id="kity_path_61" fill="none" stroke="gray" d="M464.00000601261854,130.49994569271803L473.00000601261854,130.49994569271803"></path></g><path id="node_outline5" fill="none" stroke="none" d="M479.5000062510371,119.49994569271803h59a5,5,0,0,1,5,5v12a5,5,0,0,1,-5,5h-59a5,5,0,0,1,-5,-5v-12a5,5,0,0,1,5,-5z" stroke-width="3"></path><g id="node_text5" fill="black"><text id="kity_text_57" text-rendering="inherit" font-size="12" dy=".8em" y="122.69994566589594" x="484.5000062510371">定义模块</text></g></g><g id="minder_node12"><g id="node_expander10" style="cursor: pointer;" display="none"><path id="kity_path_137" fill="white" stroke="gray" d="M560.5000072941184,260.499947629869A6,6,0,1,1,548.5000072941184,260.499947629869A6,6,0,1,1,560.5000072941184,260.499947629869"></path><path id="kity_path_138" fill="none" stroke="gray"></path></g><path id="node_outline11" fill="none" stroke="none" d="M565.5000090077519,206.49994827061892h210a5,5,0,0,1,5,5v98a5,5,0,0,1,-5,5h-210a5,5,0,0,1,-5,-5v-98a5,5,0,0,1,5,-5z"></path><g id="node_text11" fill="black"><text id="kity_text_130" text-rendering="inherit" font-size="12" dy=".8em" y="295.6999482437968" x="669.5000090077519"> </text></g><image id="kity_image_133" xlink:href="http://kityminder-img.gz.bcebos.com/a852e15722cb0757977f5786a61da1625b216cd9" x="570.5000090077519" y="211.49994827061892" width="200" height="81"></image></g><g id="minder_node11" opacity="1"><g id="node_expander11" style="cursor: pointer;"><path id="kity_path_140" fill="white" stroke="gray" d="M476.50000604242086,260.499947629869A6,6,0,1,1,464.50000604242086,260.499947629869A6,6,0,1,1,476.50000604242086,260.499947629869"></path><path id="kity_path_141" fill="none" stroke="gray" d="M466.00000604242086,260.499947629869L475.00000604242086,260.499947629869"></path></g><path id="node_outline12" fill="none" stroke="none" d="M481.50000628083944,249.49994762986898h34a5,5,0,0,1,5,5v12a5,5,0,0,1,-5,5h-34a5,5,0,0,1,-5,-5v-12a5,5,0,0,1,5,-5z" stroke-width="3"></path><g id="node_text12" fill="black"><text id="kity_text_132" text-rendering="inherit" font-size="12" dy=".8em" y="252.6999476030469" x="486.50000628083944">引用</text></g></g><g id="minder_node10" opacity="1"><g id="node_expander9" style="cursor: pointer;"><path id="kity_path_122" fill="white" stroke="gray" d="M341.5000040307641,202.49994676560163A6,6,0,1,1,329.5000040307641,202.49994676560163A6,6,0,1,1,341.5000040307641,202.49994676560163"></path><path id="kity_path_123" fill="none" stroke="gray" d="M331.0000040307641,202.49994676560163L340.0000040307641,202.49994676560163"></path></g><path id="node_outline10" fill="none" stroke="none" d="M346.5000042691827,191.49994676560163h83a5,5,0,0,1,5,5v12a5,5,0,0,1,-5,5h-83a5,5,0,0,1,-5,-5v-12a5,5,0,0,1,5,-5z" stroke-width="3"></path><g id="node_text10" fill="black"><text id="kity_text_119" text-rendering="inherit" font-size="12" dy=".8em" y="194.69994673877954" x="351.5000042691827">模块加载模块</text></g></g><g id="minder_node18"><g id="node_expander17" style="cursor: pointer;" display="none"><path id="kity_path_210" fill="white" stroke="gray" d="M567.5000073984265,332.4999487027526A6,6,0,1,1,555.5000073984265,332.4999487027526A6,6,0,1,1,567.5000073984265,332.4999487027526"></path><path id="kity_path_211" fill="none" stroke="gray"></path></g><path id="node_outline18" fill="none" stroke="none" d="M572.5000076368451,321.4999487027526h158a5,5,0,0,1,5,5v12a5,5,0,0,1,-5,5h-158a5,5,0,0,1,-5,-5v-12a5,5,0,0,1,5,-5z" stroke-width="3"></path><g id="node_text18" fill="black"><text id="kity_text_207" text-rendering="inherit" font-size="12" dy=".8em" y="324.6999486759305" x="577.5000076368451">从文件(eg.html)加载字符串</text></g></g><g id="minder_node15"><g id="node_expander14" style="cursor: pointer;"><path id="kity_path_182" fill="white" stroke="gray" d="M450.5000056549907,332.4999487027526A6,6,0,1,1,438.5000056549907,332.4999487027526A6,6,0,1,1,450.5000056549907,332.4999487027526"></path><path id="kity_path_183" fill="none" stroke="gray" d="M440.0000056549907,332.4999487027526L449.0000056549907,332.4999487027526"></path></g><path id="node_outline15" fill="none" stroke="none" d="M455.50000589340925,321.4999487027526h67a5,5,0,0,1,5,5v12a5,5,0,0,1,-5,5h-67a5,5,0,0,1,-5,-5v-12a5,5,0,0,1,5,-5z" stroke-width="3"></path><g id="node_text15" fill="black"><text id="kity_text_179" text-rendering="inherit" font-size="12" dy=".8em" y="324.6999486759305" x="460.50000589340925">dojo/text!</text></g></g><g id="minder_node17"><g id="node_expander16" style="cursor: pointer;" display="none"><path id="kity_path_198" fill="white" stroke="gray" d="M605.5000079646707,398.49994968622923A6,6,0,1,1,593.5000079646707,398.49994968622923A6,6,0,1,1,605.5000079646707,398.49994968622923"></path><path id="kity_path_199" fill="none" stroke="gray"></path></g><path id="node_outline17" fill="none" stroke="none" d="M610.5000082030892,364.49995002895594h310a5,5,0,0,1,5,5v58a5,5,0,0,1,-5,5h-310a5,5,0,0,1,-5,-5v-58a5,5,0,0,1,5,-5z" stroke-width="3"></path><g id="node_text17" fill="black"><text id="kity_text_195" text-rendering="inherit" font-size="12" dy=".8em" y="413.69995000213385" x="615.5000082030892">用来推迟回调，放在末尾。没有数据传递，需要感叹号。</text></g><image id="kity_image_203" xlink:href="http://kityminder-img.gz.bcebos.com/f49aa772b38f81691ba8d5f482b2e7100717fca9" x="665.5000082030892" y="369.49995002895594" width="200" height="41"></image></g><g id="minder_node16" opacity="1"><g id="node_expander15" style="cursor: pointer;"><path id="kity_path_190" fill="white" stroke="gray" d="M451.50000566989183,398.49994968622923A6,6,0,1,1,439.50000566989183,398.49994968622923A6,6,0,1,1,451.50000566989183,398.49994968622923"></path><path id="kity_path_191" fill="none" stroke="gray" d="M441.00000566989183,398.49994968622923L450.00000566989183,398.49994968622923"></path></g><path id="node_outline16" fill="none" stroke="none" d="M456.5000059083104,387.49994968622923h104a5,5,0,0,1,5,5v12a5,5,0,0,1,-5,5h-104a5,5,0,0,1,-5,-5v-12a5,5,0,0,1,5,-5z" stroke-width="3"></path><g id="node_text16" fill="black"><text id="kity_text_187" text-rendering="inherit" font-size="12" dy=".8em" y="390.69994965940714" x="461.5000059083104">dojo/domReady</text></g></g><g id="minder_node14" opacity="1"><g id="node_expander13" style="cursor: pointer;"><path id="kity_path_156" fill="white" stroke="gray" d="M340.50000401586294,369.49994925409555A6,6,0,1,1,328.50000401586294,369.49994925409555A6,6,0,1,1,340.50000401586294,369.49994925409555"></path><path id="kity_path_157" fill="none" stroke="gray" d="M330.00000401586294,369.49994925409555L339.00000401586294,369.49994925409555"></path></g><path id="node_outline14" fill="none" stroke="none" d="M345.5000042542815,358.49994925409555h60a5,5,0,0,1,5,5v12a5,5,0,0,1,-5,5h-60a5,5,0,0,1,-5,-5v-12a5,5,0,0,1,5,-5z" stroke-width="3"></path><g id="node_text14" fill="black"><text id="kity_text_153" text-rendering="inherit" font-size="12" dy=".8em" y="361.69994922727346" x="350.5000042542815">使用插件</text></g></g><g id="minder_node30"><g id="node_expander29" style="cursor: pointer;" display="none"><path id="kity_path_334" fill="white" stroke="gray" d="M450.5000056549907,623.9999530464411A6,6,0,1,1,438.5000056549907,623.9999530464411A6,6,0,1,1,450.5000056549907,623.9999530464411"></path><path id="kity_path_335" fill="none" stroke="gray"></path></g><path id="node_outline30" fill="none" stroke="none" d="M455.500006608665,510.4999545738101h155a5,5,0,0,1,5,5v217a5,5,0,0,1,-5,5h-155a5,5,0,0,1,-5,-5v-217a5,5,0,0,1,5,-5z" stroke-width="3"></path><g id="node_text30" fill="black"><text id="kity_text_331" text-rendering="inherit" font-size="12" dy=".8em" y="718.699954546988" x="508.500006608665">文件结构</text></g><image id="kity_image_336" xlink:href="http://kityminder-img.gz.bcebos.com/c71eb5f3449ffa8c201967a77e82d186c45ce5a3" x="460.500006608665" y="515.4999545738101" width="145" height="200"></image></g><g id="minder_node22"><g id="node_expander21" style="cursor: pointer;" display="none"><path id="kity_path_254" fill="white" stroke="gray" d="M721.5000096932054,756.4999550208449A6,6,0,1,1,709.5000096932054,756.4999550208449A6,6,0,1,1,721.5000096932054,756.4999550208449"></path><path id="kity_path_255" fill="none" stroke="gray"></path></g><path id="node_outline22" fill="none" stroke="none" d="M726.5000099316239,745.4999550208449h325a5,5,0,0,1,5,5v12a5,5,0,0,1,-5,5h-325a5,5,0,0,1,-5,-5v-12a5,5,0,0,1,5,-5z" stroke-width="3"></path><g id="node_text22" fill="black"><text id="kity_text_251" text-rendering="inherit" font-size="12" dy=".8em" y="748.6999549940228" x="731.5000099316239">具有加载程序配置选项的对象——可在运行时重新加载程序</text></g></g><g id="minder_node21" opacity="1"><g id="node_expander20" style="cursor: pointer;"><path id="kity_path_245" fill="white" stroke="gray" d="M558.5000072643161,756.4999550208449A6,6,0,1,1,546.5000072643161,756.4999550208449A6,6,0,1,1,558.5000072643161,756.4999550208449"></path><path id="kity_path_246" fill="none" stroke="gray" d="M548.0000072643161,756.4999550208449L557.0000072643161,756.4999550208449"></path></g><path id="node_outline21" fill="none" stroke="none" d="M563.5000075027347,736.4999550208449h113a5,5,0,0,1,5,5v30a5,5,0,0,1,-5,5h-113a5,5,0,0,1,-5,-5v-30a5,5,0,0,1,5,-5z" stroke-width="3"></path><g id="node_text21" fill="black"><text id="kity_text_242" text-rendering="inherit" font-size="12" dy=".8em" y="739.6999549940228" x="568.5000075027347">&#xa0;configurtion配置</text><text id="kity_text_247" text-rendering="inherit" font-size="12" dy=".8em" y="757.6999549940228" x="568.5000075027347">(可选，undefined)</text></g></g><g id="minder_node24" opacity="1"><g id="node_expander23" style="cursor: pointer;" display="none"><path id="kity_path_271" fill="white" stroke="gray" d="M759.5000102594495,802.4999557062984A6,6,0,1,1,747.5000102594495,802.4999557062984A6,6,0,1,1,759.5000102594495,802.4999557062984"></path><path id="kity_path_272" fill="none" stroke="gray"></path></g><path id="node_outline24" fill="none" stroke="none" d="M764.5000104978681,791.4999557062984h227a5,5,0,0,1,5,5v12a5,5,0,0,1,-5,5h-227a5,5,0,0,1,-5,-5v-12a5,5,0,0,1,5,-5z" stroke-width="3"></path><g id="node_text24" fill="black"><text id="kity_text_268" text-rendering="inherit" font-size="12" dy=".8em" y="794.6999556794763" x="769.5000104978681">若指定，则先解析这些模块在运行代码。</text></g></g><g id="minder_node27" opacity="1"><g id="node_expander26" style="cursor: pointer;" display="none"><path id="kity_path_298" fill="white" stroke="gray" d="M759.5000102594495,854.4999564811587A6,6,0,1,1,747.5000102594495,854.4999564811587A6,6,0,1,1,759.5000102594495,854.4999564811587"></path><path id="kity_path_299" fill="none" stroke="gray"></path></g><path id="node_outline27" fill="none" stroke="none" d="M764.5000104978681,843.4999564811587h276a5,5,0,0,1,5,5v12a5,5,0,0,1,-5,5h-276a5,5,0,0,1,-5,-5v-12a5,5,0,0,1,5,-5z" stroke-width="3"></path><g id="node_text27" fill="black"><text id="kity_text_295" text-rendering="inherit" font-size="12" dy=".8em" y="846.6999564543366" x="769.5000104978681">按序加载，并作为参数传递给回调函数，按序传递</text></g></g><g id="minder_node23" opacity="1"><g id="node_expander22" style="cursor: pointer;"><path id="kity_path_262" fill="white" stroke="gray" d="M558.5000072643161,828.4999560937285A6,6,0,1,1,546.5000072643161,828.4999560937285A6,6,0,1,1,558.5000072643161,828.4999560937285"></path><path id="kity_path_263" fill="none" stroke="gray" d="M548.0000072643161,828.4999560937285L557.0000072643161,828.4999560937285"></path></g><path id="node_outline23" fill="none" stroke="none" d="M563.5000075027347,808.4999560937285h151a5,5,0,0,1,5,5v30a5,5,0,0,1,-5,5h-151a5,5,0,0,1,-5,-5v-30a5,5,0,0,1,5,-5z" stroke-width="3"></path><g id="node_text23" fill="black"><text id="kity_text_259" text-rendering="inherit" font-size="12" dy=".8em" y="811.6999560669065" x="568.5000075027347">dependencies标识符数组</text><text id="kity_text_290" text-rendering="inherit" font-size="12" dy=".8em" y="829.6999560669065" x="568.5000075027347">(可选，[ ]&#xa0; )</text></g></g><g id="minder_node29"><g id="node_expander28" style="cursor: pointer;" display="none"><path id="kity_path_314" fill="white" stroke="gray" d="M664.5000088438392,893.499957062304A6,6,0,1,1,652.5000088438392,893.499957062304A6,6,0,1,1,664.5000088438392,893.499957062304"></path><path id="kity_path_315" fill="none" stroke="gray"></path></g><path id="node_outline29" fill="none" stroke="none" d="M669.5000090822577,882.499957062304h335a5,5,0,0,1,5,5v12a5,5,0,0,1,-5,5h-335a5,5,0,0,1,-5,-5v-12a5,5,0,0,1,5,-5z" stroke-width="3"></path><g id="node_text29" fill="black"><text id="kity_text_311" text-rendering="inherit" font-size="12" dy=".8em" y="885.6999570354819" x="674.5000090822577">包含需要运行的函数，异步加载并能使用对模块的非全局引用</text></g></g><g id="minder_node28" opacity="1"><g id="node_expander27" style="cursor: pointer;"><path id="kity_path_306" fill="white" stroke="gray" d="M557.5000072494149,893.499957062304A6,6,0,1,1,545.5000072494149,893.499957062304A6,6,0,1,1,557.5000072494149,893.499957062304"></path><path id="kity_path_307" fill="none" stroke="gray" d="M547.0000072494149,893.499957062304L556.0000072494149,893.499957062304"></path></g><path id="node_outline28" fill="none" stroke="none" d="M562.5000074878335,882.499957062304h57a5,5,0,0,1,5,5v12a5,5,0,0,1,-5,5h-57a5,5,0,0,1,-5,-5v-12a5,5,0,0,1,5,-5z" stroke-width="3"></path><g id="node_text28" fill="black"><text id="kity_text_303" text-rendering="inherit" font-size="12" dy=".8em" y="885.6999570354819" x="567.5000074878335">callback</text></g></g><g id="minder_node33"><g id="node_expander32" style="cursor: pointer;" display="none"><path id="kity_path_359" fill="white" stroke="gray" d="M653.5000086799264,969.4999581947923A6,6,0,1,1,641.5000086799264,969.4999581947923A6,6,0,1,1,653.5000086799264,969.4999581947923"></path><path id="kity_path_360" fill="none" stroke="gray"></path></g><path id="node_outline33" fill="none" stroke="none" d="M658.5000098720193,930.4999586120248h210a5,5,0,0,1,5,5v68a5,5,0,0,1,-5,5h-210a5,5,0,0,1,-5,-5v-68a5,5,0,0,1,5,-5z" stroke-width="3"></path><g id="node_text33" fill="black"><text id="kity_text_356" text-rendering="inherit" font-size="12" dy=".8em" y="989.6999585852027" x="727.5000098720193">配置加载程序</text></g><image id="kity_image_361" xlink:href="http://kityminder-img.gz.bcebos.com/9b7448e328356043c26d9e69514ac3c57b25c037" x="663.5000098720193" y="935.4999586120248" width="200" height="51"></image></g><g id="minder_node32" opacity="1"><g id="node_expander31" style="cursor: pointer;"><path id="kity_path_351" fill="white" stroke="gray" d="M568.5000074133277,969.4999581947923A6,6,0,1,1,556.5000074133277,969.4999581947923A6,6,0,1,1,568.5000074133277,969.4999581947923"></path><path id="kity_path_352" fill="none" stroke="gray" d="M558.0000074133277,969.4999581947923L567.0000074133277,969.4999581947923"></path></g><path id="node_outline32" fill="none" stroke="none" d="M573.5000076517463,958.4999581947923h35a5,5,0,0,1,5,5v12a5,5,0,0,1,-5,5h-35a5,5,0,0,1,-5,-5v-12a5,5,0,0,1,5,-5z" stroke-width="3"></path><g id="node_text32" fill="black"><text id="kity_text_348" text-rendering="inherit" font-size="12" dy=".8em" y="961.6999581679702" x="578.5000076517463">示例</text></g></g><g id="minder_node20" opacity="1"><g id="node_expander19" style="cursor: pointer;"><path id="kity_path_237" fill="white" stroke="gray" d="M457.5000057592988,867.4999566748738A6,6,0,1,1,445.5000057592988,867.4999566748738A6,6,0,1,1,457.5000057592988,867.4999566748738"></path><path id="kity_path_238" fill="none" stroke="gray" d="M447.0000057592988,867.4999566748738L456.0000057592988,867.4999566748738"></path></g><path id="node_outline20" fill="none" stroke="none" d="M462.5000059977174,856.4999566748738h51a5,5,0,0,1,5,5v12a5,5,0,0,1,-5,5h-51a5,5,0,0,1,-5,-5v-12a5,5,0,0,1,5,-5z" stroke-width="3"></path><g id="node_text20" fill="black"><text id="kity_text_234" text-rendering="inherit" font-size="12" dy=".8em" y="859.6999566480517" x="467.5000059977174">require</text></g></g><g id="minder_node31" opacity="1"><g id="node_expander30" style="cursor: pointer;"><path id="kity_path_343" fill="white" stroke="gray" d="M480.5000061020255,1156.4999609813094A6,6,0,1,1,468.5000061020255,1156.4999609813094A6,6,0,1,1,480.5000061020255,1156.4999609813094"></path><path id="kity_path_344" fill="none" stroke="gray" d="M470.0000061020255,1156.4999609813094L479.0000061020255,1156.4999609813094"></path></g><path id="node_outline31" fill="none" stroke="none" d="M485.5000063404441,1145.4999609813094h46a5,5,0,0,1,5,5v12a5,5,0,0,1,-5,5h-46a5,5,0,0,1,-5,-5v-12a5,5,0,0,1,5,-5z" stroke-width="3"></path><g id="node_text31" fill="black"><text id="kity_text_340" text-rendering="inherit" font-size="12" dy=".8em" y="1148.6999609544873" x="490.5000063404441">define</text></g></g><g id="minder_node42" opacity="1"><g id="node_expander41" style="cursor: pointer;"><path id="kity_path_462" fill="white" stroke="gray" d="M555.5000072196126,1461.4999655261636A6,6,0,1,1,543.5000072196126,1461.4999655261636A6,6,0,1,1,555.5000072196126,1461.4999655261636"></path><path id="kity_path_463" fill="none" stroke="gray" d="M545.0000072196126,1461.4999655261636L554.0000072196126,1461.4999655261636"></path></g><path id="node_outline42" fill="none" stroke="none" d="M560.5000074580312,1450.4999655261636h82a5,5,0,0,1,5,5v12a5,5,0,0,1,-5,5h-82a5,5,0,0,1,-5,-5v-12a5,5,0,0,1,5,-5z" stroke-width="3"></path><g id="node_text42" fill="black"><text id="kity_text_459" text-rendering="inherit" font-size="12" dy=".8em" y="1453.6999654993415" x="565.5000074580312">配置加载程序</text></g></g><g id="minder_node54" opacity="1"><g id="node_expander53" style="cursor: pointer;"><path id="kity_path_574" fill="white" stroke="gray" d="M575.5000075176358,1716.4999693259597A6,6,0,1,1,563.5000075176358,1716.4999693259597A6,6,0,1,1,575.5000075176358,1716.4999693259597"></path><path id="kity_path_575" fill="none" stroke="gray" d="M565.0000075176358,1716.4999693259597L574.0000075176358,1716.4999693259597"></path></g><path id="node_outline54" fill="none" stroke="none" d="M580.5000077560544,1705.4999693259597h71a5,5,0,0,1,5,5v12a5,5,0,0,1,-5,5h-71a5,5,0,0,1,-5,-5v-12a5,5,0,0,1,5,-5z" stroke-width="3"></path><g id="node_text54" fill="black"><text id="kity_text_571" text-rendering="inherit" font-size="12" dy=".8em" y="1708.6999692991376" x="585.5000077560544">便携式模块</text></g></g><g id="minder_node19" opacity="1"><g id="node_expander18" style="cursor: pointer;"><path id="kity_path_218" fill="white" stroke="gray" d="M341.5000040307641,1448.4999653324485A6,6,0,1,1,329.5000040307641,1448.4999653324485A6,6,0,1,1,341.5000040307641,1448.4999653324485"></path><path id="kity_path_219" fill="none" stroke="gray" d="M331.0000040307641,1448.4999653324485L340.0000040307641,1448.4999653324485"></path></g><path id="node_outline19" fill="none" stroke="none" d="M346.5000042691827,1437.4999653324485h59a5,5,0,0,1,5,5v12a5,5,0,0,1,-5,5h-59a5,5,0,0,1,-5,-5v-12a5,5,0,0,1,5,-5z" stroke-width="3"></path><g id="node_text19" fill="black"><text id="kity_text_215" text-rendering="inherit" font-size="12" dy=".8em" y="1440.6999653056264" x="351.5000042691827">高级用法</text></g></g><g id="minder_node57" opacity="1"><g id="node_expander56" style="cursor: pointer;"><path id="kity_path_716" fill="white" stroke="gray" d="M588.5000077113509,2108.499975167215A6,6,0,1,1,576.5000077113509,2108.499975167215A6,6,0,1,1,588.5000077113509,2108.499975167215"></path><path id="kity_path_717" fill="none" stroke="gray" d="M578.0000077113509,2108.499975167215L587.0000077113509,2108.499975167215"></path></g><path id="node_outline57" fill="none" stroke="none" d="M593.5000079497695,2097.499975167215h96a5,5,0,0,1,5,5v12a5,5,0,0,1,-5,5h-96a5,5,0,0,1,-5,-5v-12a5,5,0,0,1,5,-5z" stroke-width="3"></path><g id="node_text57" fill="black"><text id="kity_text_713" text-rendering="inherit" font-size="12" dy=".8em" y="2100.699975140393" x="598.5000079497695">加载非amd代码</text></g></g><g id="minder_node35"><g id="node_expander34" style="cursor: pointer;" display="none"><path id="kity_path_402" fill="white" stroke="gray" d="M739.5000099614263,1050.4999594017863A6,6,0,1,1,727.5000099614263,1050.4999594017863A6,6,0,1,1,739.5000099614263,1050.4999594017863"></path><path id="kity_path_403" fill="none" stroke="gray"></path></g><path id="node_outline35" fill="none" stroke="none" d="M744.5000101998448,1039.4999594017863h71a5,5,0,0,1,5,5v12a5,5,0,0,1,-5,5h-71a5,5,0,0,1,-5,-5v-12a5,5,0,0,1,5,-5z" stroke-width="3"></path><g id="node_text35" fill="black"><text id="kity_text_399" text-rendering="inherit" font-size="12" dy=".8em" y="1042.6999593749642" x="749.5000101998448">模块标识符</text></g></g><g id="minder_node34"><g id="node_expander33" style="cursor: pointer;"><path id="kity_path_392" fill="white" stroke="gray" d="M576.500007532537,1050.4999594017863A6,6,0,1,1,564.500007532537,1050.4999594017863A6,6,0,1,1,576.500007532537,1050.4999594017863"></path><path id="kity_path_393" fill="none" stroke="gray" d="M566.000007532537,1050.4999594017863L575.000007532537,1050.4999594017863"></path></g><path id="node_outline34" fill="none" stroke="none" d="M581.5000077709556,1030.4999594017863h113a5,5,0,0,1,5,5v30a5,5,0,0,1,-5,5h-113a5,5,0,0,1,-5,-5v-30a5,5,0,0,1,5,-5z" stroke-width="3"></path><g id="node_text34" fill="black"><text id="kity_text_389" text-rendering="inherit" font-size="12" dy=".8em" y="1033.6999593749642" x="586.5000077709556">moduleId</text><text id="kity_text_394" text-rendering="inherit" font-size="12" dy=".8em" y="1051.6999593749642" x="586.5000077709556">(可选，undefined)</text></g></g><g id="minder_node37"><g id="node_expander36" style="cursor: pointer;" display="none"><path id="kity_path_420" fill="white" stroke="gray" d="M728.5000097975135,1120.4999604448676A6,6,0,1,1,716.5000097975135,1120.4999604448676A6,6,0,1,1,728.5000097975135,1120.4999604448676"></path><path id="kity_path_421" fill="none" stroke="gray"></path></g><path id="node_outline37" fill="none" stroke="none" d="M733.5000100359321,1100.4999604448676h491a5,5,0,0,1,5,5v30a5,5,0,0,1,-5,5h-491a5,5,0,0,1,-5,-5v-30a5,5,0,0,1,5,-5z" stroke-width="3"></path><g id="node_text37" fill="black"><text id="kity_text_417" text-rendering="inherit" font-size="12" dy=".8em" y="1103.6999604180455" x="738.5000100359321">模块标识符的数组，它们是模块的依赖项。</text><text id="kity_text_422" text-rendering="inherit" font-size="12" dy=".8em" y="1121.6999604180455" x="738.5000100359321">如果已指定，将在评估模块之前解析这些模块，并将它们作为参数按顺序传递给工厂函数。</text></g></g><g id="minder_node36"><g id="node_expander35" style="cursor: pointer;"><path id="kity_path_410" fill="white" stroke="gray" d="M576.500007532537,1120.4999604448676A6,6,0,1,1,564.500007532537,1120.4999604448676A6,6,0,1,1,576.500007532537,1120.4999604448676"></path><path id="kity_path_411" fill="none" stroke="gray" d="M566.000007532537,1120.4999604448676L575.000007532537,1120.4999604448676"></path></g><path id="node_outline36" fill="none" stroke="none" d="M581.5000077709556,1100.4999604448676h102a5,5,0,0,1,5,5v30a5,5,0,0,1,-5,5h-102a5,5,0,0,1,-5,-5v-30a5,5,0,0,1,5,-5z" stroke-width="3"></path><g id="node_text36" fill="black"><text id="kity_text_407" text-rendering="inherit" font-size="12" dy=".8em" y="1103.6999604180455" x="586.5000077709556">dependencies</text><text id="kity_text_412" text-rendering="inherit" font-size="12" dy=".8em" y="1121.6999604180455" x="586.5000077709556">（optional，[]）</text></g></g><g id="minder_node39"><g id="node_expander38" style="cursor: pointer;" display="none"><path id="kity_path_437" fill="white" stroke="gray" d="M677.5000090375543,1181.4999613538384A6,6,0,1,1,665.5000090375543,1181.4999613538384A6,6,0,1,1,677.5000090375543,1181.4999613538384"></path><path id="kity_path_438" fill="none" stroke="gray"></path></g><path id="node_outline39" fill="none" stroke="none" d="M682.5000092759728,1170.4999613538384h231a5,5,0,0,1,5,5v12a5,5,0,0,1,-5,5h-231a5,5,0,0,1,-5,-5v-12a5,5,0,0,1,5,-5z" stroke-width="3"></path><g id="node_text39" fill="black"><text id="kity_text_434" text-rendering="inherit" font-size="12" dy=".8em" y="1173.6999613270164" x="687.5000092759728">模块的值，或将返回值的“factory”函数</text></g></g><g id="minder_node38"><g id="node_expander37" style="cursor: pointer;"><path id="kity_path_429" fill="white" stroke="gray" d="M576.500007532537,1181.4999613538384A6,6,0,1,1,564.500007532537,1181.4999613538384A6,6,0,1,1,576.500007532537,1181.4999613538384"></path><path id="kity_path_430" fill="none" stroke="gray" d="M566.000007532537,1181.4999613538384L575.000007532537,1181.4999613538384"></path></g><path id="node_outline38" fill="none" stroke="none" d="M581.5000077709556,1170.4999613538384h51a5,5,0,0,1,5,5v12a5,5,0,0,1,-5,5h-51a5,5,0,0,1,-5,-5v-12a5,5,0,0,1,5,-5z" stroke-width="3"></path><g id="node_text38" fill="black"><text id="kity_text_426" text-rendering="inherit" font-size="12" dy=".8em" y="1173.6999613270164" x="586.5000077709556">factory</text></g></g><g id="minder_node41"><g id="node_expander40" style="cursor: pointer;" display="none"><path id="kity_path_453" fill="white" stroke="gray" d="M661.5000087991357,1272.499962709844A6,6,0,1,1,649.5000087991357,1272.499962709844A6,6,0,1,1,661.5000087991357,1272.499962709844"></path><path id="kity_path_454" fill="none" stroke="gray"></path></g><path id="node_outline41" fill="none" stroke="none" d="M666.5000099763274,1222.4999632909894h210a5,5,0,0,1,5,5v90a5,5,0,0,1,-5,5h-210a5,5,0,0,1,-5,-5v-90a5,5,0,0,1,5,-5z" stroke-width="3"></path><g id="node_text41" fill="black"><text id="kity_text_450" text-rendering="inherit" font-size="12" dy=".8em" y="1303.6999632641673" x="734.5000099763274">定义普通对象</text></g><image id="kity_image_455" xlink:href="http://kityminder-img.gz.bcebos.com/ef8cbdfbb7cfa46f79b4c3b632640a4dbb7cddfe" x="671.5000099763274" y="1227.4999632909894" width="200" height="73"></image></g><g id="minder_node40"><g id="node_expander39" style="cursor: pointer;"><path id="kity_path_445" fill="white" stroke="gray" d="M576.500007532537,1272.499962709844A6,6,0,1,1,564.500007532537,1272.499962709844A6,6,0,1,1,576.500007532537,1272.499962709844"></path><path id="kity_path_446" fill="none" stroke="gray" d="M566.000007532537,1272.499962709844L575.000007532537,1272.499962709844"></path></g><path id="node_outline40" fill="none" stroke="none" d="M581.5000077709556,1261.499962709844h35a5,5,0,0,1,5,5v12a5,5,0,0,1,-5,5h-35a5,5,0,0,1,-5,-5v-12a5,5,0,0,1,5,-5z" stroke-width="3"></path><g id="node_text40" fill="black"><text id="kity_text_442" text-rendering="inherit" font-size="12" dy=".8em" y="1264.699962683022" x="586.5000077709556">示例</text></g></g><g id="minder_node50"><g id="node_expander47" style="cursor: pointer;" display="none"><path id="kity_path_542" fill="white" stroke="gray" d="M890.5000122115016,1406.9999647140503A6,6,0,1,1,878.5000122115016,1406.9999647140503A6,6,0,1,1,890.5000122115016,1406.9999647140503"></path><path id="kity_path_543" fill="none" stroke="gray"></path></g><path id="node_outline48" fill="none" stroke="none" d="M895.5000125542283,1337.4999655857682h210a5,5,0,0,1,5,5v129a5,5,0,0,1,-5,5h-210a5,5,0,0,1,-5,-5v-129a5,5,0,0,1,5,-5z" stroke-width="3"></path><g id="node_text48" fill="black"><text id="kity_text_526" text-rendering="inherit" font-size="12" dy=".8em" y="1457.6999655589461" x="907.5000125542283">在加载dojo.js之前配置dojoconfig</text></g><image id="kity_image_535" xlink:href="http://kityminder-img.gz.bcebos.com/9b7d5d85d47d77d1e70f21dc6d98094154e2a5e3" x="900.5000125542283" y="1342.4999655857682" width="200" height="112"></image></g><g id="minder_node49"><g id="node_expander48" style="cursor: pointer;"><path id="kity_path_545" fill="white" stroke="gray" d="M757.5000102296472,1406.4999647065997A6,6,0,1,1,745.5000102296472,1406.4999647065997A6,6,0,1,1,757.5000102296472,1406.4999647065997"></path><path id="kity_path_546" fill="none" stroke="gray" d="M747.0000102296472,1406.4999647065997L756.0000102296472,1406.4999647065997"></path></g><path id="node_outline49" fill="none" stroke="none" d="M762.5000104680657,1395.4999647065997h83a5,5,0,0,1,5,5v12a5,5,0,0,1,-5,5h-83a5,5,0,0,1,-5,-5v-12a5,5,0,0,1,5,-5z"></path><g id="node_text49" fill="black"><text id="kity_text_528" text-rendering="inherit" font-size="12" dy=".8em" y="1398.6999646797776" x="767.5000104680657">配置位置信息</text></g></g><g id="minder_node52"><g id="node_expander49" style="cursor: pointer;" display="none"><path id="kity_path_548" fill="white" stroke="gray" d="M841.5000114813447,1516.4999663457274A6,6,0,1,1,829.5000114813447,1516.4999663457274A6,6,0,1,1,841.5000114813447,1516.4999663457274"></path><path id="kity_path_549" fill="none" stroke="gray"></path></g><path id="node_outline50" fill="none" stroke="none" d="M846.5000117197633,1505.4999663457274h437a5,5,0,0,1,5,5v12a5,5,0,0,1,-5,5h-437a5,5,0,0,1,-5,-5v-12a5,5,0,0,1,5,-5z"></path><g id="node_text50" fill="black"><text id="kity_text_530" text-rendering="inherit" font-size="12" dy=".8em" y="1508.6999663189054" x="851.5000117197633">&lt;script data-dojo-config="async: true" src="js/lib/dojo/dojo.js"&gt;&lt;/script&gt;</text></g></g><g id="minder_node51"><g id="node_expander50" style="cursor: pointer;"><path id="kity_path_551" fill="white" stroke="gray" d="M757.5000102296472,1516.4999663457274A6,6,0,1,1,745.5000102296472,1516.4999663457274A6,6,0,1,1,757.5000102296472,1516.4999663457274"></path><path id="kity_path_552" fill="none" stroke="gray" d="M747.0000102296472,1516.4999663457274L756.0000102296472,1516.4999663457274"></path></g><path id="node_outline51" fill="none" stroke="none" d="M762.5000104680657,1505.4999663457274h34a5,5,0,0,1,5,5v12a5,5,0,0,1,-5,5h-34a5,5,0,0,1,-5,-5v-12a5,5,0,0,1,5,-5z"></path><g id="node_text51" fill="black"><text id="kity_text_532" text-rendering="inherit" font-size="12" dy=".8em" y="1508.6999663189054" x="767.5000104680657">异步</text></g></g><g id="minder_node48" opacity="1"><g id="node_expander51" style="cursor: pointer;"><path id="kity_path_554" fill="white" stroke="gray" d="M687.5000091865659,1461.4999655261636A6,6,0,1,1,675.5000091865659,1461.4999655261636A6,6,0,1,1,687.5000091865659,1461.4999655261636"></path><path id="kity_path_555" fill="none" stroke="gray" d="M677.0000091865659,1461.4999655261636L686.0000091865659,1461.4999655261636"></path></g><path id="node_outline52" fill="none" stroke="none" d="M692.5000094249845,1450.4999655261636h20a5,5,0,0,1,5,5v12a5,5,0,0,1,-5,5h-20a5,5,0,0,1,-5,-5v-12a5,5,0,0,1,5,-5z" stroke-width="3"></path><g id="node_text52" fill="black"><text id="kity_text_534" text-rendering="inherit" font-size="12" dy=".8em" y="1453.6999654993415" x="697.5000094249845">A</text></g></g><g id="minder_node55"><g id="node_expander54" style="cursor: pointer;" display="none"><path id="kity_path_698" fill="white" stroke="gray" d="M696.5000093206763,1631.9999680668116A6,6,0,1,1,684.5000093206763,1631.9999680668116A6,6,0,1,1,696.5000093206763,1631.9999680668116"></path><path id="kity_path_699" fill="none" stroke="gray"></path></g><path id="node_outline55" fill="none" stroke="none" d="M701.5000100508332,1557.4999690130353h210a5,5,0,0,1,5,5v139a5,5,0,0,1,-5,5h-210a5,5,0,0,1,-5,-5v-139a5,5,0,0,1,5,-5z" stroke-width="3"></path><g id="node_text55" fill="black"><text id="kity_text_695" text-rendering="inherit" font-size="12" dy=".8em" y="1687.6999689862132" x="739.5000100508332">相对于config设置的路径</text></g><image id="kity_image_700" xlink:href="http://kityminder-img.gz.bcebos.com/2d0681dd812f6e5994cdd4ec5e0159a0c41ae48a" x="706.5000100508332" y="1562.4999690130353" width="200" height="122"></image></g><g id="minder_node56"><g id="node_expander55" style="cursor: pointer;" display="none"><path id="kity_path_707" fill="white" stroke="gray" d="M696.5000093206763,1806.4999706670642A6,6,0,1,1,684.5000093206763,1806.4999706670642A6,6,0,1,1,696.5000093206763,1806.4999706670642"></path><path id="kity_path_708" fill="none" stroke="gray"></path></g><path id="node_outline56" fill="none" stroke="none" d="M701.5000104978681,1736.4999715462327h210a5,5,0,0,1,5,5v130a5,5,0,0,1,-5,5h-210a5,5,0,0,1,-5,-5v-130a5,5,0,0,1,5,-5z" stroke-width="3"></path><g id="node_text56" fill="black"><text id="kity_text_704" text-rendering="inherit" font-size="12" dy=".8em" y="1857.6999715194106" x="769.5000104978681">相对于本文件</text></g><image id="kity_image_709" xlink:href="http://kityminder-img.gz.bcebos.com/b45c253a52420b04b073d482be009cf334ec8214" x="706.5000104978681" y="1741.4999715462327" width="200" height="113"></image></g><g id="minder_node61" opacity="1"><g id="node_expander60" style="cursor: pointer;" display="none"><path id="kity_path_748" fill="white" stroke="gray" d="M851.5000116303563,1946.4999727532268A6,6,0,1,1,839.5000116303563,1946.4999727532268A6,6,0,1,1,851.5000116303563,1946.4999727532268"></path><path id="kity_path_749" fill="none" stroke="gray" d="M841.0000116303563,1946.4999727532268L850.0000116303563,1946.4999727532268"></path></g><path id="node_outline61" fill="none" stroke="none" d="M856.5000118687749,1935.4999727532268h51a5,5,0,0,1,5,5v12a5,5,0,0,1,-5,5h-51a5,5,0,0,1,-5,-5v-12a5,5,0,0,1,5,-5z" stroke-width="3"></path><g id="node_text61" fill="black"><text id="kity_text_745" text-rendering="inherit" font-size="12" dy=".8em" y="1938.6999727264047" x="861.5000118687749">以/开头</text></g></g><g id="minder_node59"><g id="node_expander58" style="cursor: pointer;" display="none"><path id="kity_path_732" fill="white" stroke="gray" d="M844.5000115260482,2007.4999736621976A6,6,0,1,1,832.5000115260482,2007.4999736621976A6,6,0,1,1,844.5000115260482,2007.4999736621976"></path><path id="kity_path_733" fill="none" stroke="gray"></path></g><path id="node_outline59" fill="none" stroke="none" d="M849.5000117644668,1996.4999736621976h97a5,5,0,0,1,5,5v12a5,5,0,0,1,-5,5h-97a5,5,0,0,1,-5,-5v-12a5,5,0,0,1,5,-5z" stroke-width="3"></path><g id="node_text59" fill="black"><text id="kity_text_729" text-rendering="inherit" font-size="12" dy=".8em" y="1999.6999736353755" x="854.5000117644668">以协议开头http:</text></g></g><g id="minder_node60"><g id="node_expander59" style="cursor: pointer;" display="none"><path id="kity_path_740" fill="white" stroke="gray" d="M844.5000115260482,2059.499974437058A6,6,0,1,1,832.5000115260482,2059.499974437058A6,6,0,1,1,844.5000115260482,2059.499974437058"></path><path id="kity_path_741" fill="none" stroke="gray"></path></g><path id="node_outline60" fill="none" stroke="none" d="M849.5000117644668,2048.499974437058h58a5,5,0,0,1,5,5v12a5,5,0,0,1,-5,5h-58a5,5,0,0,1,-5,-5v-12a5,5,0,0,1,5,-5z" stroke-width="3"></path><g id="node_text60" fill="black"><text id="kity_text_737" text-rendering="inherit" font-size="12" dy=".8em" y="2051.699974410236" x="854.5000117644668">以.js结尾</text></g></g><g id="minder_node62"><g id="node_expander61" style="cursor: pointer;"><path id="kity_path_759" fill="white" stroke="gray" d="M734.5000098869205,2007.4999736621976A6,6,0,1,1,722.5000098869205,2007.4999736621976A6,6,0,1,1,734.5000098869205,2007.4999736621976"></path><path id="kity_path_760" fill="none" stroke="gray" d="M724.0000098869205,2007.4999736621976L733.0000098869205,2007.4999736621976"></path></g><path id="node_outline62" fill="none" stroke="none" d="M739.500010125339,1996.4999736621976h60a5,5,0,0,1,5,5v12a5,5,0,0,1,-5,5h-60a5,5,0,0,1,-5,-5v-12a5,5,0,0,1,5,-5z" stroke-width="3"></path><g id="node_text62" fill="black"><text id="kity_text_756" text-rendering="inherit" font-size="12" dy=".8em" y="1999.6999736353755" x="744.500010125339">识别方式</text></g></g><g id="minder_node63"><g id="node_expander62" style="cursor: pointer;"><path id="kity_path_794" fill="white" stroke="gray" d="M734.5000098869205,2160.4999759420753A6,6,0,1,1,722.5000098869205,2160.4999759420753A6,6,0,1,1,734.5000098869205,2160.4999759420753"></path><path id="kity_path_795" fill="none" stroke="gray" d="M724.0000098869205,2160.4999759420753L733.0000098869205,2160.4999759420753"></path></g><path id="node_outline63" fill="none" stroke="none" d="M739.5000112429261,2100.499976672232h210a5,5,0,0,1,5,5v110a5,5,0,0,1,-5,5h-210a5,5,0,0,1,-5,-5v-110a5,5,0,0,1,5,-5z" stroke-width="3"></path><g id="node_text63" fill="black"><text id="kity_text_791" text-rendering="inherit" font-size="12" dy=".8em" y="2201.69997664541" x="819.5000112429261">分支主题</text></g><image id="kity_image_796" xlink:href="http://kityminder-img.gz.bcebos.com/f962a043419613e410791e3f5ce22509191583c6" x="744.5000112429261" y="2105.499976672232" width="200" height="93"></image></g><g id="minder_node64"><g id="node_expander63" style="cursor: pointer;" display="none"><path id="kity_path_803" fill="white" stroke="gray" d="M994.5000137612224,2160.4999759420753A6,6,0,1,1,982.5000137612224,2160.4999759420753A6,6,0,1,1,994.5000137612224,2160.4999759420753"></path><path id="kity_path_804" fill="none" stroke="gray"></path></g><path id="node_outline64" fill="none" stroke="none" d="M999.5000139996409,2140.4999759420753h355a5,5,0,0,1,5,5v30a5,5,0,0,1,-5,5h-355a5,5,0,0,1,-5,-5v-30a5,5,0,0,1,5,-5z" stroke-width="3"></path><g id="node_text64" fill="black"><text id="kity_text_800" text-rendering="inherit" font-size="12" dy=".8em" y="2143.699975915253" x="1004.5000139996409">调用require(["my/legacyModule"])通过AMD加载器加载此代码</text><text id="kity_text_805" text-rendering="inherit" font-size="12" dy=".8em" y="2161.699975915253" x="1004.5000139996409">解析值式分配给my/legacyModule的对象</text></g></g><g id="minder_node65" opacity="1"><g id="node_expander64" style="cursor: pointer;"><path id="kity_path_812" fill="white" stroke="gray" d="M575.5000075176358,2359.4999789074063A6,6,0,1,1,563.5000075176358,2359.4999789074063A6,6,0,1,1,575.5000075176358,2359.4999789074063"></path><path id="kity_path_813" fill="none" stroke="gray" d="M565.0000075176358,2359.4999789074063L574.0000075176358,2359.4999789074063"></path></g><path id="node_outline65" fill="none" stroke="none" d="M580.5000077560544,2339.4999789074063h337a5,5,0,0,1,5,5v30a5,5,0,0,1,-5,5h-337a5,5,0,0,1,-5,-5v-30a5,5,0,0,1,5,-5z" stroke-width="3"></path><g id="node_text65" fill="black"><text id="kity_text_809" text-rendering="inherit" font-size="12" dy=".8em" y="2342.6999788805842" x="585.5000077560544">有条件地需要模块</text><text id="kity_text_832" text-rendering="inherit" font-size="12" dy=".8em" y="2360.6999788805842" x="585.5000077560544">require对于加载模块的资源（图像，模板，CSS）也非常有用</text></g></g><g id="minder_node67"><g id="node_expander66" style="cursor: pointer;" display="none"><path id="kity_path_829" fill="white" stroke="gray" d="M1222.5000171586871,2359.999978914857A6,6,0,1,1,1210.5000171586871,2359.999978914857A6,6,0,1,1,1222.5000171586871,2359.999978914857"></path><path id="kity_path_830" fill="none" stroke="gray"></path></g><path id="node_outline67" fill="none" stroke="none" d="M1227.500017799437,2312.4999794587493h210a5,5,0,0,1,5,5v85a5,5,0,0,1,-5,5h-210a5,5,0,0,1,-5,-5v-85a5,5,0,0,1,5,-5z" stroke-width="3"></path><g id="node_text67" fill="black"><text id="kity_text_826" text-rendering="inherit" font-size="12" dy=".8em" y="2388.699979431927" x="1259.500017799437">通过require.toUrl引用图片</text></g><image id="kity_image_831" xlink:href="http://kityminder-img.gz.bcebos.com/6eadd32c88291683b6fba44dbfb62cefd2f07cd5" x="1232.500017799437" y="2317.4999794587493" width="200" height="68"></image></g><g id="minder_node66"><g id="node_expander65" style="cursor: pointer;"><path id="kity_path_820" fill="white" stroke="gray" d="M962.5000132843852,2359.4999789074063A6,6,0,1,1,950.5000132843852,2359.4999789074063A6,6,0,1,1,962.5000132843852,2359.4999789074063"></path><path id="kity_path_821" fill="none" stroke="gray" d="M952.0000132843852,2359.4999789074063L961.0000132843852,2359.4999789074063"></path></g><path id="node_outline66" fill="none" stroke="none" d="M967.5000146403909,2292.4999797418714h210a5,5,0,0,1,5,5v124a5,5,0,0,1,-5,5h-210a5,5,0,0,1,-5,-5v-124a5,5,0,0,1,5,-5z" stroke-width="3"></path><g id="node_text66" fill="black"><text id="kity_text_817" text-rendering="inherit" font-size="12" dy=".8em" y="2407.6999797150493" x="1047.5000146403909">文件格式</text></g><image id="kity_image_822" xlink:href="http://kityminder-img.gz.bcebos.com/9eeec1114acd57a11931192da5f58ecbea692593" x="972.5000146403909" y="2297.4999797418714" width="200" height="107"></image></g><g id="minder_node68"><g id="node_expander67" style="cursor: pointer;"><path id="kity_path_841" fill="white" stroke="gray" d="M340.50000401586294,3682.4999986216426A6,6,0,1,1,328.50000401586294,3682.4999986216426A6,6,0,1,1,340.50000401586294,3682.4999986216426"></path><path id="kity_path_842" fill="none" stroke="gray" d="M330.00000401586294,3682.4999986216426L339.00000401586294,3682.4999986216426"></path></g><path id="node_outline68" fill="none" stroke="none" d="M345.5000042542815,3671.4999986216426h35a5,5,0,0,1,5,5v12a5,5,0,0,1,-5,5h-35a5,5,0,0,1,-5,-5v-12a5,5,0,0,1,5,-5z" stroke-width="3"></path><g id="node_text68" fill="black"><text id="kity_text_838" text-rendering="inherit" font-size="12" dy=".8em" y="3674.6999985948205" x="350.5000042542815">参数</text></g></g><g id="minder_node69"><g id="node_expander68" style="cursor: pointer;"><path id="kity_path_849" fill="white" stroke="gray" d="M425.50000528246164,3385.4999941959977A6,6,0,1,1,413.50000528246164,3385.4999941959977A6,6,0,1,1,425.50000528246164,3385.4999941959977"></path><path id="kity_path_850" fill="none" stroke="gray" d="M415.00000528246164,3385.4999941959977L424.00000528246164,3385.4999941959977"></path></g><path id="node_outline69" fill="none" stroke="none" d="M430.5000055208802,3374.4999941959977h95a5,5,0,0,1,5,5v12a5,5,0,0,1,-5,5h-95a5,5,0,0,1,-5,-5v-12a5,5,0,0,1,5,-5z" stroke-width="3"></path><g id="node_text69" fill="black"><text id="kity_text_846" text-rendering="inherit" font-size="12" dy=".8em" y="3377.6999941691756" x="435.5000055208802">className类名</text></g></g><g id="minder_node70" opacity="1"><g id="node_expander69" style="cursor: pointer;"><path id="kity_path_857" fill="white" stroke="gray" d="M429.5000053420663,3599.499997384846A6,6,0,1,1,417.5000053420663,3599.499997384846A6,6,0,1,1,429.5000053420663,3599.499997384846"></path><path id="kity_path_858" fill="none" stroke="gray" d="M419.0000053420663,3599.499997384846L428.0000053420663,3599.499997384846"></path></g><path id="node_outline70" fill="none" stroke="none" d="M434.50000558048487,3588.499997384846h96a5,5,0,0,1,5,5v12a5,5,0,0,1,-5,5h-96a5,5,0,0,1,-5,-5v-12a5,5,0,0,1,5,-5z" stroke-width="3"></path><g id="node_text70" fill="black"><text id="kity_text_854" text-rendering="inherit" font-size="12" dy=".8em" y="3591.699997358024" x="439.50000558048487">superClass超类</text></g></g><g id="minder_node71" opacity="1"><g id="node_expander70" style="cursor: pointer;"><path id="kity_path_865" fill="white" stroke="gray" d="M441.5000055208802,3771.499999947846A6,6,0,1,1,429.5000055208802,3771.499999947846A6,6,0,1,1,441.5000055208802,3771.499999947846"></path><path id="kity_path_866" fill="none" stroke="gray" d="M431.0000055208802,3771.499999947846L440.0000055208802,3771.499999947846"></path></g><path id="node_outline71" fill="none" stroke="none" d="M446.5000057592988,3760.499999947846h69a5,5,0,0,1,5,5v12a5,5,0,0,1,-5,5h-69a5,5,0,0,1,-5,-5v-12a5,5,0,0,1,5,-5z" stroke-width="3"></path><g id="node_text71" fill="black"><text id="kity_text_862" text-rendering="inherit" font-size="12" dy=".8em" y="3763.699999921024" x="451.5000057592988">Properties</text></g></g><g id="minder_node72"><g id="node_expander71" style="cursor: pointer;"><path id="kity_path_873" fill="white" stroke="gray" d="M570.50000744313,3323.4999932721257A6,6,0,1,1,558.50000744313,3323.4999932721257A6,6,0,1,1,570.50000744313,3323.4999932721257"></path><path id="kity_path_874" fill="none" stroke="gray" d="M560.00000744313,3323.4999932721257L569.00000744313,3323.4999932721257"></path></g><path id="node_outline72" fill="none" stroke="none" d="M575.5000076815486,3312.4999932721257h48a5,5,0,0,1,5,5v12a5,5,0,0,1,-5,5h-48a5,5,0,0,1,-5,-5v-12a5,5,0,0,1,5,-5z" stroke-width="3"></path><g id="node_text72" fill="black"><text id="kity_text_870" text-rendering="inherit" font-size="12" dy=".8em" y="3315.6999932453036" x="580.5000076815486">命名类</text></g></g><g id="minder_node73" opacity="1"><g id="node_expander72" style="cursor: pointer;"><path id="kity_path_881" fill="white" stroke="gray" d="M568.5000074133277,3449.499995149672A6,6,0,1,1,556.5000074133277,3449.499995149672A6,6,0,1,1,568.5000074133277,3449.499995149672"></path><path id="kity_path_882" fill="none" stroke="gray" d="M558.0000074133277,3449.499995149672L567.0000074133277,3449.499995149672"></path></g><path id="node_outline73" fill="none" stroke="none" d="M573.5000076517463,3438.499995149672h47a5,5,0,0,1,5,5v12a5,5,0,0,1,-5,5h-47a5,5,0,0,1,-5,-5v-12a5,5,0,0,1,5,-5z" stroke-width="3"></path><g id="node_text73" fill="black"><text id="kity_text_878" text-rendering="inherit" font-size="12" dy=".8em" y="3441.69999512285" x="578.5000076517463">匿名类</text></g></g><g id="minder_node74"><g id="node_expander73" style="cursor: pointer;" display="none"><path id="kity_path_889" fill="white" stroke="gray" d="M668.5000089034438,3323.4999932721257A6,6,0,1,1,656.5000089034438,3323.4999932721257A6,6,0,1,1,668.5000089034438,3323.4999932721257"></path><path id="kity_path_890" fill="none" stroke="gray"></path></g><path id="node_outline74" fill="none" stroke="none" d="M673.5000091418624,3276.4999932721257h319a5,5,0,0,1,5,5v84a5,5,0,0,1,-5,5h-319a5,5,0,0,1,-5,-5v-84a5,5,0,0,1,5,-5z" stroke-width="3"></path><g id="node_text74" fill="black"><text id="kity_text_886" text-rendering="inherit" font-size="12" dy=".8em" y="3279.6999932453036" x="678.5000091418624">// Create a new class named "mynamespace.MyClass"</text><text id="kity_text_891" text-rendering="inherit" font-size="12" dy=".8em" y="3297.6999932453036" x="678.5000091418624">declare("mynamespace.MyClass", null, { </text><text id="kity_text_892" text-rendering="inherit" font-size="12" dy=".8em" y="3315.6999932453036" x="678.5000091418624">&#xa0;// Custom properties and methods here</text><text id="kity_text_893" text-rendering="inherit" font-size="12" dy=".8em" y="3333.6999932453036" x="678.5000091418624">});</text><text id="kity_text_906" text-rendering="inherit" font-size="12" dy=".8em" y="3351.6999932453036" x="678.5000091418624">名为mynamespace.MyClass的类在应用程序中全局可用</text></g></g><g id="minder_node75"><g id="node_expander74" style="cursor: pointer;" display="none"><path id="kity_path_900" fill="white" stroke="gray" d="M665.5000088587403,3449.499995149672A6,6,0,1,1,653.5000088587403,3449.499995149672A6,6,0,1,1,665.5000088587403,3449.499995149672"></path><path id="kity_path_901" fill="none" stroke="gray"></path></g><path id="node_outline75" fill="none" stroke="none" d="M670.5000090971589,3402.499995149672h243a5,5,0,0,1,5,5v84a5,5,0,0,1,-5,5h-243a5,5,0,0,1,-5,-5v-84a5,5,0,0,1,5,-5z" stroke-width="3"></path><g id="node_text75" fill="black"><text id="kity_text_897" text-rendering="inherit" font-size="12" dy=".8em" y="3405.69999512285" x="675.5000090971589">// Create a scoped, anonymous class</text><text id="kity_text_902" text-rendering="inherit" font-size="12" dy=".8em" y="3423.69999512285" x="675.5000090971589">var MyClass = declare(null, { </text><text id="kity_text_903" text-rendering="inherit" font-size="12" dy=".8em" y="3441.69999512285" x="675.5000090971589">&#xa0;// Custom properties and methods here</text><text id="kity_text_904" text-rendering="inherit" font-size="12" dy=".8em" y="3459.69999512285" x="675.5000090971589">});</text><text id="kity_text_905" text-rendering="inherit" font-size="12" dy=".8em" y="3477.69999512285" x="675.5000090971589">只有在MyClass给定范围内使用。</text></g></g><g id="minder_node79"><g id="node_expander78" style="cursor: pointer;" display="none"><path id="kity_path_938" fill="white" stroke="gray" d="M721.5000096932054,3539.4999964907765A6,6,0,1,1,709.5000096932054,3539.4999964907765A6,6,0,1,1,721.5000096932054,3539.4999964907765"></path><path id="kity_path_939" fill="none" stroke="gray"></path></g><path id="node_outline79" fill="none" stroke="none" d="M726.5000099316239,3519.4999964907765h187a5,5,0,0,1,5,5v30a5,5,0,0,1,-5,5h-187a5,5,0,0,1,-5,-5v-30a5,5,0,0,1,5,-5z" stroke-width="3"></path><g id="node_text79" fill="black"><text id="kity_text_935" text-rendering="inherit" font-size="12" dy=".8em" y="3522.6999964639544" x="731.5000099316239">var MyClass = declare(null, {   });</text><text id="kity_text_940" text-rendering="inherit" font-size="12" dy=".8em" y="3540.6999964639544" x="731.5000099316239">null 表示此类没有要继承的类。</text></g></g><g id="minder_node76" opacity="1"><g id="node_expander75" style="cursor: pointer;"><path id="kity_path_914" fill="white" stroke="gray" d="M587.5000076964498,3539.4999964907765A6,6,0,1,1,575.5000076964498,3539.4999964907765A6,6,0,1,1,587.5000076964498,3539.4999964907765"></path><path id="kity_path_915" fill="none" stroke="gray" d="M577.0000076964498,3539.4999964907765L586.0000076964498,3539.4999964907765"></path></g><path id="node_outline76" fill="none" stroke="none" d="M592.5000079348683,3528.4999964907765h84a5,5,0,0,1,5,5v12a5,5,0,0,1,-5,5h-84a5,5,0,0,1,-5,-5v-12a5,5,0,0,1,5,-5z" stroke-width="3"></path><g id="node_text76" fill="black"><text id="kity_text_911" text-rendering="inherit" font-size="12" dy=".8em" y="3531.6999964639544" x="597.5000079348683">没有继承的类</text></g></g><g id="minder_node80"><g id="node_expander79" style="cursor: pointer;" display="none"><path id="kity_path_947" fill="white" stroke="gray" d="M747.5000100806355,3598.499997369945A6,6,0,1,1,735.5000100806355,3598.499997369945A6,6,0,1,1,747.5000100806355,3598.499997369945"></path><path id="kity_path_948" fill="none" stroke="gray"></path></g><path id="node_outline80" fill="none" stroke="none" d="M752.5000103190541,3569.499997369945h383a5,5,0,0,1,5,5v48a5,5,0,0,1,-5,5h-383a5,5,0,0,1,-5,-5v-48a5,5,0,0,1,5,-5z" stroke-width="3"></path><g id="node_text80" fill="black"><text id="kity_text_944" text-rendering="inherit" font-size="12" dy=".8em" y="3572.699997343123" x="757.5000103190541">var MySubClass = declare(MyClass, {&#xa0; &#xa0;});</text><text id="kity_text_950" text-rendering="inherit" font-size="12" dy=".8em" y="3590.699997343123" x="757.5000103190541">新的MySubClass将继承MyClass的属性和方法。</text><text id="kity_text_951" text-rendering="inherit" font-size="12" dy=".8em" y="3608.699997343123" x="757.5000103190541">可以通过在第三个参数中添加带有新定义的键来覆盖父类的方法或属性</text></g></g><g id="minder_node77" opacity="1"><g id="node_expander76" style="cursor: pointer;"><path id="kity_path_922" fill="white" stroke="gray" d="M577.5000075474381,3598.499997369945A6,6,0,1,1,565.5000075474381,3598.499997369945A6,6,0,1,1,577.5000075474381,3598.499997369945"></path><path id="kity_path_923" fill="none" stroke="gray" d="M567.0000075474381,3598.499997369945L576.0000075474381,3598.499997369945"></path></g><path id="node_outline77" fill="none" stroke="none" d="M582.5000077858567,3587.499997369945h120a5,5,0,0,1,5,5v12a5,5,0,0,1,-5,5h-120a5,5,0,0,1,-5,-5v-12a5,5,0,0,1,5,-5z" stroke-width="3"></path><g id="node_text77" fill="black"><text id="kity_text_919" text-rendering="inherit" font-size="12" dy=".8em" y="3590.699997343123" x="587.5000077858567">继承自另一个类的类</text></g></g><g id="minder_node81"><g id="node_expander80" style="cursor: pointer;" display="none"><path id="kity_path_962" fill="white" stroke="gray" d="M740.5000099763274,3669.4999984279275A6,6,0,1,1,728.5000099763274,3669.4999984279275A6,6,0,1,1,740.5000099763274,3669.4999984279275"></path><path id="kity_path_963" fill="none" stroke="gray"></path></g><path id="node_outline81" fill="none" stroke="none" d="M745.500010214746,3631.4999984279275h488a5,5,0,0,1,5,5v66a5,5,0,0,1,-5,5h-488a5,5,0,0,1,-5,-5v-66a5,5,0,0,1,5,-5z" stroke-width="3"></path><g id="node_text81" fill="black"><text id="kity_text_959" text-rendering="inherit" font-size="12" dy=".8em" y="3634.6999984011054" x="750.500010214746">var MyMultiSubClass = declare([&#xa0; MySubClass,&#xa0; MyOtherClass,&#xa0; MyMixinClass],{&#xa0; &#xa0; });</text><text id="kity_text_969" text-rendering="inherit" font-size="12" dy=".8em" y="3652.6999984011054" x="750.500010214746">类数组表示多重继承。属性和方法从左到右继承。</text><text id="kity_text_970" text-rendering="inherit" font-size="12" dy=".8em" y="3670.6999984011054" x="750.500010214746">数组中的第一个类充当基本原型，然后后续类是该类的mixins。</text><text id="kity_text_971" text-rendering="inherit" font-size="12" dy=".8em" y="3688.6999984011054" x="750.500010214746">如果在多个继承的类中指定了属性或方法，则使用上一个继承的类中的属性或方法。</text></g></g><g id="minder_node78" opacity="1"><g id="node_expander77" style="cursor: pointer;"><path id="kity_path_930" fill="white" stroke="gray" d="M582.500007621944,3669.4999984279275A6,6,0,1,1,570.500007621944,3669.4999984279275A6,6,0,1,1,582.500007621944,3669.4999984279275"></path><path id="kity_path_931" fill="none" stroke="gray" d="M572.000007621944,3669.4999984279275L581.000007621944,3669.4999984279275"></path></g><path id="node_outline78" fill="none" stroke="none" d="M587.5000078603625,3658.4999984279275h108a5,5,0,0,1,5,5v12a5,5,0,0,1,-5,5h-108a5,5,0,0,1,-5,-5v-12a5,5,0,0,1,5,-5z" stroke-width="3"></path><g id="node_text78" fill="black"><text id="kity_text_927" text-rendering="inherit" font-size="12" dy=".8em" y="3661.6999984011054" x="592.5000078603625">具有多重继承的类</text></g></g><g id="minder_node83"><g id="node_expander82" style="cursor: pointer;" display="none"><path id="kity_path_994" fill="white" stroke="gray" d="M717.5000096336007,3771.499999947846A6,6,0,1,1,705.5000096336007,3771.499999947846A6,6,0,1,1,717.5000096336007,3771.499999947846"></path><path id="kity_path_995" fill="none" stroke="gray"></path></g><path id="node_outline83" fill="none" stroke="none" d="M722.5000098720193,3724.499999947846h246a5,5,0,0,1,5,5v84a5,5,0,0,1,-5,5h-246a5,5,0,0,1,-5,-5v-84a5,5,0,0,1,5,-5z" stroke-width="3"></path><g id="node_text83" fill="black"><text id="kity_text_991" text-rendering="inherit" font-size="12" dy=".8em" y="3727.699999921024" x="727.5000098720193">var MyClass = declare(&#xa0; &#xa0;MyParentClass, {</text><text id="kity_text_996" text-rendering="inherit" font-size="12" dy=".8em" y="3745.699999921024" x="727.5000098720193">	myProperty1: 12,</text><text id="kity_text_997" text-rendering="inherit" font-size="12" dy=".8em" y="3763.699999921024" x="727.5000098720193">	myOtherProperty: "Hello",</text><text id="kity_text_998" text-rendering="inherit" font-size="12" dy=".8em" y="3781.699999921024" x="727.5000098720193">	myMethod: function(){ return result; }</text><text id="kity_text_999" text-rendering="inherit" font-size="12" dy=".8em" y="3799.699999921024" x="727.5000098720193">});</text></g></g><g id="minder_node82"><g id="node_expander81" style="cursor: pointer;"><path id="kity_path_986" fill="white" stroke="gray" d="M560.5000072941184,3771.499999947846A6,6,0,1,1,548.5000072941184,3771.499999947846A6,6,0,1,1,560.5000072941184,3771.499999947846"></path><path id="kity_path_987" fill="none" stroke="gray" d="M550.0000072941184,3771.499999947846L559.0000072941184,3771.499999947846"></path></g><path id="node_outline82" fill="none" stroke="none" d="M565.500007532537,3760.499999947846h107a5,5,0,0,1,5,5v12a5,5,0,0,1,-5,5h-107a5,5,0,0,1,-5,-5v-12a5,5,0,0,1,5,-5z" stroke-width="3"></path><g id="node_text82" fill="black"><text id="kity_text_983" text-rendering="inherit" font-size="12" dy=".8em" y="3763.699999921024" x="570.500007532537">自定义属性和方法</text></g></g><g id="minder_node84" opacity="1"><g id="node_expander83" style="cursor: pointer;"><path id="kity_path_1034" fill="white" stroke="gray" d="M434.5000054165721,3919.500002153218A6,6,0,1,1,422.5000054165721,3919.500002153218A6,6,0,1,1,434.5000054165721,3919.500002153218"></path><path id="kity_path_1035" fill="none" stroke="gray" d="M424.0000054165721,3919.500002153218L433.0000054165721,3919.500002153218"></path></g><path id="node_outline84" fill="none" stroke="none" d="M439.5000056549907,3908.500002153218h35a5,5,0,0,1,5,5v12a5,5,0,0,1,-5,5h-35a5,5,0,0,1,-5,-5v-12a5,5,0,0,1,5,-5z" stroke-width="3"></path><g id="node_text84" fill="black"><text id="kity_text_1031" text-rendering="inherit" font-size="12" dy=".8em" y="3911.7000021263957" x="444.5000056549907">示例</text></g></g><g id="minder_node87"><g id="node_expander86" style="cursor: pointer;" display="none"><path id="kity_path_1070" fill="white" stroke="gray" d="M519.5000066831708,3919.500002153218A6,6,0,1,1,507.5000066831708,3919.500002153218A6,6,0,1,1,519.5000066831708,3919.500002153218"></path><path id="kity_path_1071" fill="none" stroke="gray"></path></g><path id="node_outline87" fill="none" stroke="none" d="M524.5000075921416,3852.500002987683h210a5,5,0,0,1,5,5v124a5,5,0,0,1,-5,5h-210a5,5,0,0,1,-5,-5v-124a5,5,0,0,1,5,-5z" stroke-width="3"></path><g id="node_text87" fill="black"><text id="kity_text_1067" text-rendering="inherit" font-size="12" dy=".8em" y="3967.7000029608607" x="574.5000075921416">基本类的创建和继承</text></g><image id="kity_image_1072" xlink:href="http://kityminder-img.gz.bcebos.com/a60621d828ffda886b14ac9d7fb88aa1396a6224" x="529.5000075921416" y="3857.500002987683" width="200" height="107"></image></g><g id="minder_node88"><g id="node_expander87" style="cursor: pointer;"><path id="kity_path_1080" fill="white" stroke="gray" d="M340.50000401586294,4245.500007010996A6,6,0,1,1,328.50000401586294,4245.500007010996A6,6,0,1,1,340.50000401586294,4245.500007010996"></path><path id="kity_path_1081" fill="none" stroke="gray" d="M330.00000401586294,4245.500007010996L339.00000401586294,4245.500007010996"></path></g><path id="node_outline88" fill="none" stroke="none" d="M345.5000042542815,4234.500007010996h84a5,5,0,0,1,5,5v12a5,5,0,0,1,-5,5h-84a5,5,0,0,1,-5,-5v-12a5,5,0,0,1,5,-5z" stroke-width="3"></path><g id="node_text88" fill="black"><text id="kity_text_1077" text-rendering="inherit" font-size="12" dy=".8em" y="4237.700006984174" x="350.5000042542815">构造函数方法</text></g></g><g id="minder_node89"><g id="node_expander88" style="cursor: pointer;"><path id="kity_path_1088" fill="white" stroke="gray" d="M474.50000601261854,4175.500005967915A6,6,0,1,1,462.50000601261854,4175.500005967915A6,6,0,1,1,474.50000601261854,4175.500005967915"></path><path id="kity_path_1089" fill="none" stroke="gray" d="M464.00000601261854,4175.500005967915L473.00000601261854,4175.500005967915"></path></g><path id="node_outline89" fill="none" stroke="none" d="M479.5000062510371,4164.500005967915h101a5,5,0,0,1,5,5v12a5,5,0,0,1,-5,5h-101a5,5,0,0,1,-5,-5v-12a5,5,0,0,1,5,-5z" stroke-width="3"></path><g id="node_text89" fill="black"><text id="kity_text_1085" text-rendering="inherit" font-size="12" dy=".8em" y="4167.700005941093" x="484.5000062510371">constructor方法</text></g></g><g id="minder_node90"><g id="node_expander89" style="cursor: pointer;" display="none"><path id="kity_path_1096" fill="white" stroke="gray" d="M625.5000082626939,4105.500004924834A6,6,0,1,1,613.5000082626939,4105.500004924834A6,6,0,1,1,625.5000082626939,4105.500004924834"></path><path id="kity_path_1097" fill="none" stroke="gray"></path></g><path id="node_outline90" fill="none" stroke="none" d="M630.5000085011125,4076.500004924834h251a5,5,0,0,1,5,5v48a5,5,0,0,1,-5,5h-251a5,5,0,0,1,-5,-5v-48a5,5,0,0,1,5,-5z" stroke-width="3"></path><g id="node_text90" fill="black"><text id="kity_text_1093" text-rendering="inherit" font-size="12" dy=".8em" y="4079.7000048980117" x="635.5000085011125">在类实例化时触发，在新对象的范围内执行。</text><text id="kity_text_1098" text-rendering="inherit" font-size="12" dy=".8em" y="4097.700004898012" x="635.5000085011125">this关键字引用实例，而不是原始类。</text><text id="kity_text_1099" text-rendering="inherit" font-size="12" dy=".8em" y="4115.700004898012" x="635.5000085011125">接受任意数量的特定与实例的参数。</text></g></g><g id="minder_node91"><g id="node_expander90" style="cursor: pointer;" display="none"><path id="kity_path_1106" fill="white" stroke="gray" d="M625.5000082626939,4184.5000061020255A6,6,0,1,1,613.5000082626939,4184.5000061020255A6,6,0,1,1,625.5000082626939,4184.5000061020255"></path><path id="kity_path_1107" fill="none" stroke="gray"></path></g><path id="node_outline91" fill="none" stroke="none" d="M630.5000085011125,4164.5000061020255h535a5,5,0,0,1,5,5v30a5,5,0,0,1,-5,5h-535a5,5,0,0,1,-5,-5v-30a5,5,0,0,1,5,-5z" stroke-width="3"></path><g id="node_text91" fill="black"><text id="kity_text_1103" text-rendering="inherit" font-size="12" dy=".8em" y="4167.700006075203" x="635.5000085011125">constructor: function(args){&#xa0; &#xa0; declare.safeMixin(this,args);&#xa0; }</text><text id="kity_text_1110" text-rendering="inherit" font-size="12" dy=".8em" y="4185.700006075203" x="635.5000085011125">declare.safeMixin混合lang._mixin等属性，用于实现使用declare()成的构造函数的extend()方法。</text></g></g><g id="minder_node92"><g id="node_expander91" style="cursor: pointer;" display="none"><path id="kity_path_1117" fill="white" stroke="gray" d="M625.5000082626939,4254.500007145107A6,6,0,1,1,613.5000082626939,4254.500007145107A6,6,0,1,1,625.5000082626939,4254.500007145107"></path><path id="kity_path_1118" fill="none" stroke="gray" d="M615.0000082626939,4254.500007145107L624.0000082626939,4254.500007145107"></path></g><path id="node_outline92" fill="none" stroke="none" d="M630.5000085011125,4234.500007145107h294a5,5,0,0,1,5,5v30a5,5,0,0,1,-5,5h-294a5,5,0,0,1,-5,-5v-30a5,5,0,0,1,5,-5z" stroke-width="3"></path><g id="node_text92" fill="black"><text id="kity_text_1114" text-rendering="inherit" font-size="12" dy=".8em" y="4237.700007118285" x="635.5000085011125">为避免无意中在所有实例之间共享数组或对象，</text><text id="kity_text_1119" text-rendering="inherit" font-size="12" dy=".8em" y="4255.700007118285" x="635.5000085011125">应使用null值声明对象属性并在构造函数中初始化</text></g><g id="kity_g_1136" style="cursor: pointer;"><path id="kity_path_1137" fill="none" stroke="none" d="M906.0000124946237,4246.000007145107h12a2,2,0,0,1,2,2v13a2,2,0,0,1,-2,2h-12a2,2,0,0,1,-2,-2v-13a2,2,0,0,1,2,-2z"></path><path id="kity_path_1138" fill="black" stroke="none" d="M915.0000125318766,4257.000007048249H909.0000125318766V4256.000007048249h6L915.0000125318766,4257.000007048249L915.0000125318766,4257.000007048249zM915.0000125318766,4255.000007048249H909.0000125318766V4254.000007048249h6V4255.000007048249zM915.0000125318766,4253.000007048249H909.0000125318766V4252.000007048249h6V4253.000007048249zM914.5000125318766,4259.000007048249H908.0000125318766V4250.000007048249h8v7.5M915.0000125318766,4260.000007048249l2,-2V4249.000007048249H907.0000125318766v11"></path></g></g><g id="kity_g_12" display="none"><path id="kity_path_13" fill="none" stroke="rgb(66, 94, 112)" d="M630.4999996945262,4181.499979071319h535a5,5,0,0,1,5,5v30a5,5,0,0,1,-5,5h-535a5,5,0,0,1,-5,-5v-30a5,5,0,0,1,5,-5z" stroke-width="5"></path></g><g id="minder_node95"><g id="node_expander94" style="cursor: pointer;"><path id="kity_path_1153" fill="white" stroke="gray" d="M474.50000601261854,4315.500008054078A6,6,0,1,1,462.50000601261854,4315.500008054078A6,6,0,1,1,474.50000601261854,4315.500008054078"></path><path id="kity_path_1154" fill="none" stroke="gray" d="M464.00000601261854,4315.500008054078L473.00000601261854,4315.500008054078"></path></g><path id="node_outline95" fill="none" stroke="none" d="M479.5000062510371,4304.500008054078h155a5,5,0,0,1,5,5v12a5,5,0,0,1,-5,5h-155a5,5,0,0,1,-5,-5v-12a5,5,0,0,1,5,-5z" stroke-width="3"></path><g id="node_text95" fill="black"><text id="kity_text_1150" text-rendering="inherit" font-size="12" dy=".8em" y="4307.7000080272555" x="484.5000062510371">this.inherited(arguments)</text></g></g><g id="minder_node96"><g id="node_expander95" style="cursor: pointer;" display="none"><path id="kity_path_1161" fill="white" stroke="gray" d="M679.5000090673566,4315.500008054078A6,6,0,1,1,667.5000090673566,4315.500008054078A6,6,0,1,1,679.5000090673566,4315.500008054078"></path><path id="kity_path_1162" fill="none" stroke="gray"></path></g><path id="node_outline96" fill="none" stroke="none" d="M684.5000093057752,4304.500008054078h120a5,5,0,0,1,5,5v12a5,5,0,0,1,-5,5h-120a5,5,0,0,1,-5,-5v-12a5,5,0,0,1,5,-5z" stroke-width="3"></path><g id="node_text96" fill="black"><text id="kity_text_1158" text-rendering="inherit" font-size="12" dy=".8em" y="4307.7000080272555" x="689.5000093057752">调用父类的同名方法</text></g></g></g></g></svg>