<svg id="kity_svg_6" xmlns="http://www.w3.org/2000/svg" xmlns:xlink="http://www.w3.org/1999/xlink" version="1.1" width="1663" height="1020" style="background: rgb(251, 251, 251); visibility: visible;" viewBox="0 0 1663 1020"><defs id="kity_defs_7"><linearGradient id="kity_linearGradient_17" x1="0" y1="0" x2="0" y2="1"><stop id="kity_stop_18" offset="0" stop-color="rgb(255, 255, 255)"></stop><stop id="kity_stop_19" offset="1" stop-color="rgb(204, 204, 204)"></stop></linearGradient><marker id="kity_marker_2" orient="auto" refX="6" refY="0" viewBox="-7 -7 14 14" markerWidth="7" markerHeight="7" markerUnits="userSpaceOnUse"><path id="kity_path_3" fill="rgb(115, 161, 191)" stroke="none" d="M6,0A6,6,0,1,1,-6,0A6,6,0,1,1,6,0"></path></marker></defs><g id="kity_g_8"><g id="minder1" text-rendering="optimize-speed"><g id="minder_connect_group1"><path id="kity_path_47" fill="none" stroke="rgb(115, 161, 191)" stroke-width="1" d="M229.9999992325902,497.5000103637576A330.5,464,0,0,1,560.4999992325902,33.50001036375761"></path><path id="kity_path_55" fill="none" stroke="rgb(115, 161, 191)" stroke-width="1" d="M229.9999992325902,497.5000103637576A306.5,322,0,0,1,536.4999992325902,175.5000103637576"></path><path id="kity_path_63" fill="none" stroke="rgb(115, 161, 191)" stroke-width="1" d="M229.9999992325902,497.5000103637576A340.5,147,0,0,1,570.4999992325902,350.5000103637576"></path><path id="kity_path_71" fill="none" stroke="rgb(115, 161, 191)" stroke-width="1" d="M229.9999992325902,497.5000103637576A334.5,47,0,0,1,564.4999992325902,450.5000103637576"></path><path id="kity_path_79" fill="none" stroke="rgb(115, 161, 191)" stroke-width="1" d="M229.9999992325902,497.5000103637576A334.5,198,0,0,0,564.4999992325902,695.5000103637576"></path><path id="kity_path_87" fill="none" stroke="rgb(115, 161, 191)" stroke-width="1" d="M229.9999992325902,497.5000103637576A333.5,38,0,0,0,563.4999992325902,535.5000103637576"></path><path id="kity_path_95" fill="none" stroke="rgb(115, 161, 191)" stroke-width="1" d="M229.9999992325902,497.5000103637576A322.5,414,0,0,0,552.4999992325902,911.5000103637576"></path><path id="kity_path_239" fill="none" stroke="rgb(115, 161, 191)" stroke-width="1" d="M929.4999992325902,535.5000103637576C949.4999992325902,535.5000103637576,949.4999992325902,509.5000103637576,969.4999992325902,509.5000103637576"></path><path id="kity_path_240" fill="none" stroke="rgb(115, 161, 191)" stroke-width="1" d="M929.4999992325902,535.5000103637576C949.4999992325902,535.5000103637576,949.4999992325902,561.5000103637576,969.4999992325902,561.5000103637576"></path><path id="kity_path_241" fill="none" stroke="rgb(115, 161, 191)" stroke-width="1" d="M759.4999992325902,535.5000103637576C779.4999992325902,535.5000103637576,779.4999992325902,535.5000103637576,799.4999992325902,535.5000103637576"></path><path id="kity_path_356" fill="none" stroke="rgb(115, 161, 191)" stroke-width="1" d="M952.4999992325902,695.5000103637576C977.9999992325902,695.5000103637576,977.9999992325902,617.5000103637576,1003.4999992325902,617.5000103637576"></path><path id="kity_path_357" fill="none" stroke="rgb(115, 161, 191)" stroke-width="1" d="M952.4999992325902,695.5000103637576C972.4999992325902,695.5000103637576,972.4999992325902,669.5000103637576,992.4999992325902,669.5000103637576"></path><path id="kity_path_358" fill="none" stroke="rgb(115, 161, 191)" stroke-width="1" d="M952.4999992325902,695.5000103637576C972.4999992325902,695.5000103637576,972.4999992325902,721.5000103637576,992.4999992325902,721.5000103637576"></path><path id="kity_path_359" fill="none" stroke="rgb(115, 161, 191)" stroke-width="1" d="M952.4999992325902,695.5000103637576C972.4999992325902,695.5000103637576,972.4999992325902,773.5000103637576,992.4999992325902,773.5000103637576"></path><path id="kity_path_360" fill="none" stroke="rgb(115, 161, 191)" stroke-width="1" d="M770.4999992325902,695.5000103637576C790.4999992325902,695.5000103637576,790.4999992325902,695.5000103637576,810.4999992325902,695.5000103637576"></path><path id="kity_path_361" fill="none" stroke="rgb(115, 161, 191)" stroke-width="1" d="M971.4999992325902,911.5000103637576C991.4999992325902,911.5000103637576,991.4999992325902,833.5000103637576,1011.4999992325902,833.5000103637576"></path><path id="kity_path_362" fill="none" stroke="rgb(115, 161, 191)" stroke-width="1" d="M971.4999992325902,911.5000103637576C991.4999992325902,911.5000103637576,991.4999992325902,885.5000103637576,1011.4999992325902,885.5000103637576"></path><path id="kity_path_363" fill="none" stroke="rgb(115, 161, 191)" stroke-width="1" d="M971.4999992325902,911.5000103637576C991.4999992325902,911.5000103637576,991.4999992325902,937.5000103637576,1011.4999992325902,937.5000103637576"></path><path id="kity_path_364" fill="none" stroke="rgb(115, 161, 191)" stroke-width="1" d="M971.4999992325902,911.5000103637576C991.4999992325902,911.5000103637576,991.4999992325902,989.5000103637576,1011.4999992325902,989.5000103637576"></path><path id="kity_path_365" fill="none" stroke="rgb(115, 161, 191)" stroke-width="1" d="M789.4999992325902,911.5000103637576C809.4999992325902,911.5000103637576,809.4999992325902,911.5000103637576,829.4999992325902,911.5000103637576"></path><path id="kity_path_368" fill="none" stroke="rgb(115, 161, 191)" stroke-width="1" d="M724.4999992325902,33.50001036375761C744.4999992325902,33.50001036375761,744.4999992325902,33.50001036375761,764.4999992325902,33.50001036375761"></path><path id="kity_path_374" fill="none" stroke="rgb(115, 161, 191)" stroke-width="1" d="M910.4999992325902,350.5000103637576C930.4999992325902,350.5000103637576,930.4999992325902,272.5000103637576,950.4999992325902,272.5000103637576"></path><path id="kity_path_375" fill="none" stroke="rgb(115, 161, 191)" stroke-width="1" d="M910.4999992325902,350.5000103637576C930.4999992325902,350.5000103637576,930.4999992325902,324.5000103637576,950.4999992325902,324.5000103637576"></path><path id="kity_path_376" fill="none" stroke="rgb(115, 161, 191)" stroke-width="1" d="M910.4999992325902,350.5000103637576C930.4999992325902,350.5000103637576,930.4999992325902,376.5000103637576,950.4999992325902,376.5000103637576"></path><path id="kity_path_377" fill="none" stroke="rgb(115, 161, 191)" stroke-width="1" d="M910.4999992325902,350.5000103637576C930.4999992325902,350.5000103637576,930.4999992325902,428.5000103637576,950.4999992325902,428.5000103637576"></path><path id="kity_path_378" fill="none" stroke="rgb(115, 161, 191)" stroke-width="1" d="M744.4999992325902,350.5000103637576C764.4999992325902,350.5000103637576,764.4999992325902,350.5000103637576,784.4999992325902,350.5000103637576"></path><path id="kity_path_384" fill="none" stroke="rgb(115, 161, 191)" stroke-width="1" d="M808.4999992325902,175.5000103637576C828.4999992325902,175.5000103637576,828.4999992325902,97.50001036375761,848.4999992325902,97.50001036375761"></path><path id="kity_path_385" fill="none" stroke="rgb(115, 161, 191)" stroke-width="1" d="M808.4999992325902,175.5000103637576C828.4999992325902,175.5000103637576,828.4999992325902,149.5000103637576,848.4999992325902,149.5000103637576"></path><path id="kity_path_386" fill="none" stroke="rgb(115, 161, 191)" stroke-width="1" d="M808.4999992325902,175.5000103637576C827.9999992325902,175.5000103637576,827.9999992325902,197.5000103637576,847.4999992325902,197.5000103637576"></path><path id="kity_path_387" fill="none" stroke="rgb(115, 161, 191)" stroke-width="1" d="M808.4999992325902,175.5000103637576C828.4999992325902,175.5000103637576,828.4999992325902,253.5000103637576,848.4999992325902,253.5000103637576"></path><path id="kity_path_388" fill="none" stroke="rgb(115, 161, 191)" stroke-width="1" d="M663.4999992325902,175.5000103637576C683.4999992325902,175.5000103637576,683.4999992325902,175.5000103637576,703.4999992325902,175.5000103637576"></path><path id="kity_path_391" fill="none" stroke="rgb(115, 161, 191)" stroke-width="1" d="M701.4999992325902,450.5000103637576C721.4999992325902,450.5000103637576,721.4999992325902,450.5000103637576,741.4999992325902,450.5000103637576"></path></g><g id="minder_node1"><path id="node_outline1" fill="rgb(115, 161, 191)" stroke="rgb(115, 161, 191)" d="M25.4999992325902,285.5000103637576h409a5,5,0,0,1,5,5v414a5,5,0,0,1,-5,5h-409a5,5,0,0,1,-5,-5v-414a5,5,0,0,1,5,-5z" stroke-width="3"></path><g id="node_text1" fill="white"><text id="kity_text_22" text-rendering="inherit" font-size="16" dy=".8em" y="295.1000103279948" x="44.4999992325902">function Foo() {</text><text id="kity_text_30" text-rendering="inherit" font-size="16" dy=".8em" y="319.1000103279948" x="44.4999992325902">	getName = function () { alert (1); };</text><text id="kity_text_31" text-rendering="inherit" font-size="16" dy=".8em" y="343.1000103279948" x="44.4999992325902">	return this;</text><text id="kity_text_32" text-rendering="inherit" font-size="16" dy=".8em" y="367.1000103279948" x="44.4999992325902">}</text><text id="kity_text_33" text-rendering="inherit" font-size="16" dy=".8em" y="391.1000103279948" x="44.4999992325902">Foo.getName = function () { alert (2);};</text><text id="kity_text_34" text-rendering="inherit" font-size="16" dy=".8em" y="415.1000103279948" x="44.4999992325902">Foo.prototype.getName = function () { alert (3);};</text><text id="kity_text_35" text-rendering="inherit" font-size="16" dy=".8em" y="439.1000103279948" x="44.4999992325902">var getName = function () { alert (4);};</text><text id="kity_text_36" text-rendering="inherit" font-size="16" dy=".8em" y="463.1000103279948" x="44.4999992325902">function getName() { alert (5);}</text><text id="kity_text_37" text-rendering="inherit" font-size="16" dy=".8em" y="487.1000103279948" x="44.4999992325902"> </text><text id="kity_text_38" text-rendering="inherit" font-size="16" dy=".8em" y="511.1000103279948" x="44.4999992325902">//请写出以下输出结果：</text><text id="kity_text_39" text-rendering="inherit" font-size="16" dy=".8em" y="535.1000103279948" x="44.4999992325902">Foo.getName();</text><text id="kity_text_40" text-rendering="inherit" font-size="16" dy=".8em" y="559.1000103279948" x="44.4999992325902">getName();</text><text id="kity_text_41" text-rendering="inherit" font-size="16" dy=".8em" y="583.1000103279948" x="44.4999992325902">Foo().getName();</text><text id="kity_text_42" text-rendering="inherit" font-size="16" dy=".8em" y="607.1000103279948" x="44.4999992325902">getName();</text><text id="kity_text_43" text-rendering="inherit" font-size="16" dy=".8em" y="631.1000103279948" x="44.4999992325902">new Foo.getName();</text><text id="kity_text_44" text-rendering="inherit" font-size="16" dy=".8em" y="655.1000103279948" x="44.4999992325902">new Foo().getName();</text><text id="kity_text_45" text-rendering="inherit" font-size="16" dy=".8em" y="679.1000103279948" x="44.4999992325902">new new Foo().getName();</text></g></g><g id="kity_g_14" display="none"><path id="kity_path_15" fill="rgba(0, 92, 153, 0.5)" stroke="none" d="M869.4999992325902,256.5000103637576h345v15h-345z"></path><path id="kity_path_16" fill="none" stroke="rgb(0, 76, 128)" d="M869.4999992325902,271.5000103637576L1214.4999992325902,271.5000103637576" stroke-width="1"></path></g><g id="minder_node2" opacity="1"><g id="node_expander1" style="cursor: pointer;"><path id="kity_path_52" fill="white" stroke="gray" d="M561.5000068470836,33.500003449618816A6,6,0,1,1,549.5000068470836,33.500003449618816A6,6,0,1,1,561.5000068470836,33.500003449618816"></path><path id="kity_path_53" fill="none" stroke="gray" d="M551.0000068470836,33.500003449618816L560.0000068470836,33.500003449618816"></path></g><path id="node_outline2" fill="rgb(238, 243, 246)" stroke="rgb(115, 161, 191)" d="M565.5000072494149,20.500003449618816h156a3,3,0,0,1,3,3v20a3,3,0,0,1,-3,3h-156a3,3,0,0,1,-3,-3v-20a3,3,0,0,1,3,-3z" stroke-width="1"></path><g id="node_text2" fill="black"><text id="kity_text_49" text-rendering="inherit" font-size="14" dy=".8em" y="24.400003418326378" x="582.5000072494149">1、Foo.getName()</text></g></g><g id="minder_node3" opacity="1"><g id="node_expander2" style="cursor: pointer;"><path id="kity_path_60" fill="white" stroke="gray" d="M537.5000064894557,175.5000055655837A6,6,0,1,1,525.5000064894557,175.5000055655837A6,6,0,1,1,537.5000064894557,175.5000055655837"></path><path id="kity_path_61" fill="none" stroke="gray" d="M527.0000064894557,175.5000055655837L536.0000064894557,175.5000055655837"></path></g><path id="node_outline3" fill="rgb(238, 243, 246)" stroke="rgb(115, 161, 191)" d="M541.500006891787,162.5000055655837h119a3,3,0,0,1,3,3v20a3,3,0,0,1,-3,3h-119a3,3,0,0,1,-3,-3v-20a3,3,0,0,1,3,-3z" stroke-width="1"></path><g id="node_text3" fill="black"><text id="kity_text_57" text-rendering="inherit" font-size="14" dy=".8em" y="166.40000553429127" x="558.500006891787">2、getName</text></g></g><g id="minder_node4" opacity="1"><g id="node_expander3" style="cursor: pointer;"><path id="kity_path_68" fill="white" stroke="gray" d="M571.5000069960952,350.5000081732869A6,6,0,1,1,559.5000069960952,350.5000081732869A6,6,0,1,1,571.5000069960952,350.5000081732869"></path><path id="kity_path_69" fill="none" stroke="gray" d="M561.0000069960952,350.5000081732869L570.0000069960952,350.5000081732869"></path></g><path id="node_outline4" fill="rgb(238, 243, 246)" stroke="rgb(115, 161, 191)" d="M575.5000073984265,337.5000081732869h166a3,3,0,0,1,3,3v20a3,3,0,0,1,-3,3h-166a3,3,0,0,1,-3,-3v-20a3,3,0,0,1,3,-3z" stroke-width="1"></path><g id="node_text4" fill="black"><text id="kity_text_65" text-rendering="inherit" font-size="14" dy=".8em" y="341.4000081419945" x="592.5000073984265">3、Foo().getName()</text></g></g><g id="minder_node5" opacity="1"><g id="node_expander4" style="cursor: pointer;"><path id="kity_path_76" fill="white" stroke="gray" d="M565.5000069066882,450.50000966340303A6,6,0,1,1,553.5000069066882,450.50000966340303A6,6,0,1,1,565.5000069066882,450.50000966340303"></path><path id="kity_path_77" fill="none" stroke="gray" d="M555.0000069066882,450.50000966340303L564.0000069066882,450.50000966340303"></path></g><path id="node_outline5" fill="rgb(238, 243, 246)" stroke="rgb(115, 161, 191)" d="M569.5000073090196,437.50000966340303h129a3,3,0,0,1,3,3v20a3,3,0,0,1,-3,3h-129a3,3,0,0,1,-3,-3v-20a3,3,0,0,1,3,-3z" stroke-width="1"></path><g id="node_text5" fill="black"><text id="kity_text_73" text-rendering="inherit" font-size="14" dy=".8em" y="441.4000096321106" x="586.5000073090196">4、getName()</text></g></g><g id="minder_node6" opacity="1"><g id="node_expander5" style="cursor: pointer;"><path id="kity_path_84" fill="white" stroke="gray" d="M565.5000069066882,695.5000133141875A6,6,0,1,1,553.5000069066882,695.5000133141875A6,6,0,1,1,565.5000069066882,695.5000133141875"></path><path id="kity_path_85" fill="none" stroke="gray" d="M555.0000069066882,695.5000133141875L564.0000069066882,695.5000133141875"></path></g><path id="node_outline6" fill="rgb(238, 243, 246)" stroke="rgb(115, 161, 191)" d="M569.5000073090196,682.5000133141875h198a3,3,0,0,1,3,3v20a3,3,0,0,1,-3,3h-198a3,3,0,0,1,-3,-3v-20a3,3,0,0,1,3,-3z" stroke-width="1"></path><g id="node_text6" fill="black"><text id="kity_text_81" text-rendering="inherit" font-size="14" dy=".8em" y="686.4000132828951" x="586.5000073090196">6、new Foo().getName()</text></g></g><g id="minder_node7" opacity="1"><g id="node_expander6" style="cursor: pointer;"><path id="kity_path_92" fill="white" stroke="gray" d="M564.500006891787,535.5000109300017A6,6,0,1,1,552.500006891787,535.5000109300017A6,6,0,1,1,564.500006891787,535.5000109300017"></path><path id="kity_path_93" fill="none" stroke="gray" d="M554.000006891787,535.5000109300017L563.000006891787,535.5000109300017"></path></g><path id="node_outline7" fill="rgb(238, 243, 246)" stroke="rgb(115, 161, 191)" d="M568.5000072941184,522.5000109300017h188a3,3,0,0,1,3,3v20a3,3,0,0,1,-3,3h-188a3,3,0,0,1,-3,-3v-20a3,3,0,0,1,3,-3z" stroke-width="1"></path><g id="node_text7" fill="black"><text id="kity_text_89" text-rendering="inherit" font-size="14" dy=".8em" y="526.4000108987093" x="585.5000072941184">5、new Foo.getName()</text></g></g><g id="minder_node8" opacity="1"><g id="node_expander7" style="cursor: pointer;"><path id="kity_path_100" fill="white" stroke="gray" d="M553.5000067278743,911.5000165328383A6,6,0,1,1,541.5000067278743,911.5000165328383A6,6,0,1,1,553.5000067278743,911.5000165328383"></path><path id="kity_path_101" fill="none" stroke="gray" d="M543.0000067278743,911.5000165328383L552.0000067278743,911.5000165328383"></path></g><path id="node_outline8" fill="rgb(238, 243, 246)" stroke="rgb(115, 161, 191)" d="M557.5000071302056,898.5000165328383h229a3,3,0,0,1,3,3v20a3,3,0,0,1,-3,3h-229a3,3,0,0,1,-3,-3v-20a3,3,0,0,1,3,-3z" stroke-width="1"></path><g id="node_text8" fill="black"><text id="kity_text_97" text-rendering="inherit" font-size="14" dy=".8em" y="902.4000165015459" x="574.5000071302056">7、new new Foo().getName()</text></g></g><g id="kity_g_12" display="none"><path id="kity_path_13" fill="none" stroke="rgb(66, 94, 112)" d="M874.4999992325902,276.5000103637576h335a5,5,0,0,1,5,5v12a5,5,0,0,1,-5,5h-335a5,5,0,0,1,-5,-5v-12a5,5,0,0,1,5,-5z" stroke-width="5"></path></g><g id="minder_node22"><g id="node_expander21" style="cursor: pointer;" display="none"><path id="kity_path_215" fill="white" stroke="gray" d="M969.5000129267573,509.50001054257154A6,6,0,1,1,957.5000129267573,509.50001054257154A6,6,0,1,1,969.5000129267573,509.50001054257154"></path><path id="kity_path_216" fill="none" stroke="gray"></path></g><path id="node_outline22" fill="none" stroke="none" d="M974.5000131651759,498.50001054257154h440a5,5,0,0,1,5,5v12a5,5,0,0,1,-5,5h-440a5,5,0,0,1,-5,-5v-12a5,5,0,0,1,5,-5z" stroke-width="3"></path><g id="node_text22" fill="black"><text id="kity_text_212" text-rendering="inherit" font-size="12" dy=".8em" y="501.70001051574945" x="979.5000131651759">new Foo.getName()等价于new (Foo.getName)() new后无参数，从左到右执行</text></g></g><g id="minder_node23"><g id="node_expander22" style="cursor: pointer;" display="none"><path id="kity_path_223" fill="white" stroke="gray" d="M969.5000129267573,561.5000113174319A6,6,0,1,1,957.5000129267573,561.5000113174319A6,6,0,1,1,969.5000129267573,561.5000113174319"></path><path id="kity_path_224" fill="none" stroke="gray"></path></g><path id="node_outline23" fill="none" stroke="none" d="M974.5000131651759,550.5000113174319h320a5,5,0,0,1,5,5v12a5,5,0,0,1,-5,5h-320a5,5,0,0,1,-5,-5v-12a5,5,0,0,1,5,-5z" stroke-width="3"></path><g id="node_text23" fill="black"><text id="kity_text_220" text-rendering="inherit" font-size="12" dy=".8em" y="553.7000112906098" x="979.5000131651759">Foo.getName = function () { alert (2);};即，此题结果为2</text></g></g><g id="minder_node21"><g id="node_expander20" style="cursor: pointer;"><path id="kity_path_207" fill="white" stroke="gray" d="M799.5000103935599,535.5000109300017A6,6,0,1,1,787.5000103935599,535.5000109300017A6,6,0,1,1,799.5000103935599,535.5000109300017"></path><path id="kity_path_208" fill="none" stroke="gray" d="M789.0000103935599,535.5000109300017L798.0000103935599,535.5000109300017"></path></g><path id="node_outline21" fill="none" stroke="none" d="M804.5000106319785,524.5000109300017h120a5,5,0,0,1,5,5v12a5,5,0,0,1,-5,5h-120a5,5,0,0,1,-5,-5v-12a5,5,0,0,1,5,-5z" stroke-width="3"></path><g id="node_text21" fill="black"><text id="kity_text_204" text-rendering="inherit" font-size="12" dy=".8em" y="527.7000109031796" x="809.5000106319785">考点：（）的优先级</text></g></g><g id="minder_node25" opacity="1"><g id="node_expander24" style="cursor: pointer;" display="none"><path id="kity_path_256" fill="white" stroke="gray" d="M1003.5000134333968,617.500012151897A6,6,0,1,1,991.5000134333968,617.500012151897A6,6,0,1,1,1003.5000134333968,617.500012151897"></path><path id="kity_path_257" fill="none" stroke="gray"></path></g><path id="node_outline25" fill="none" stroke="none" d="M1008.5000136718154,606.500012151897h296a5,5,0,0,1,5,5v12a5,5,0,0,1,-5,5h-296a5,5,0,0,1,-5,-5v-12a5,5,0,0,1,5,-5z" stroke-width="3"></path><g id="node_text25" fill="black"><text id="kity_text_253" text-rendering="inherit" font-size="12" dy=".8em" y="609.7000121250749" x="1013.5000136718154">new Foo().getName()等价于(new Foo()).getName()</text></g></g><g id="minder_node32"><g id="node_expander31" style="cursor: pointer;" display="none"><path id="kity_path_312" fill="white" stroke="gray" d="M992.500013269484,669.5000129267573A6,6,0,1,1,980.500013269484,669.5000129267573A6,6,0,1,1,992.500013269484,669.5000129267573"></path><path id="kity_path_313" fill="none" stroke="gray"></path></g><path id="node_outline32" fill="none" stroke="none" d="M997.5000135079026,658.5000129267573h153a5,5,0,0,1,5,5v12a5,5,0,0,1,-5,5h-153a5,5,0,0,1,-5,-5v-12a5,5,0,0,1,5,-5z" stroke-width="3"></path><g id="node_text32" fill="black"><text id="kity_text_309" text-rendering="inherit" font-size="12" dy=".8em" y="661.7000128999352" x="1002.5000135079026">先初始化Foo的实例化对象</text></g></g><g id="minder_node36"><g id="node_expander35" style="cursor: pointer;" display="none"><path id="kity_path_344" fill="white" stroke="gray" d="M992.500013269484,721.5000137016177A6,6,0,1,1,980.500013269484,721.5000137016177A6,6,0,1,1,992.500013269484,721.5000137016177"></path><path id="kity_path_345" fill="none" stroke="gray"></path></g><path id="node_outline36" fill="none" stroke="none" d="M997.5000135079026,710.5000137016177h197a5,5,0,0,1,5,5v12a5,5,0,0,1,-5,5h-197a5,5,0,0,1,-5,-5v-12a5,5,0,0,1,5,-5z" stroke-width="3"></path><g id="node_text36" fill="black"><text id="kity_text_341" text-rendering="inherit" font-size="12" dy=".8em" y="713.7000136747956" x="1002.5000135079026">然后调用其原型上的getName函数</text></g></g><g id="minder_node33"><g id="node_expander32" style="cursor: pointer;" display="none"><path id="kity_path_320" fill="white" stroke="gray" d="M992.500013269484,773.5000144764781A6,6,0,1,1,980.500013269484,773.5000144764781A6,6,0,1,1,992.500013269484,773.5000144764781"></path><path id="kity_path_321" fill="none" stroke="gray" d="M982.000013269484,773.5000144764781L991.000013269484,773.5000144764781"></path></g><path id="node_outline33" fill="none" stroke="none" d="M997.5000135079026,762.5000144764781h54a5,5,0,0,1,5,5v12a5,5,0,0,1,-5,5h-54a5,5,0,0,1,-5,-5v-12a5,5,0,0,1,5,-5z" stroke-width="3"></path><g id="node_text33" fill="black"><text id="kity_text_317" text-rendering="inherit" font-size="12" dy=".8em" y="765.700014449656" x="1002.5000135079026">结果为3</text></g></g><g id="minder_node24"><g id="node_expander23" style="cursor: pointer;"><path id="kity_path_248" fill="white" stroke="gray" d="M810.5000105574727,695.5000133141875A6,6,0,1,1,798.5000105574727,695.5000133141875A6,6,0,1,1,810.5000105574727,695.5000133141875"></path><path id="kity_path_249" fill="none" stroke="gray" d="M800.0000105574727,695.5000133141875L809.0000105574727,695.5000133141875"></path></g><path id="node_outline24" fill="none" stroke="none" d="M815.5000107958913,684.5000133141875h132a5,5,0,0,1,5,5v12a5,5,0,0,1,-5,5h-132a5,5,0,0,1,-5,-5v-12a5,5,0,0,1,5,-5z" stroke-width="3"></path><g id="node_text24" fill="black"><text id="kity_text_245" text-rendering="inherit" font-size="12" dy=".8em" y="687.7000132873654" x="820.5000107958913">考点：构造函数和原型</text></g></g><g id="minder_node28"><g id="node_expander27" style="cursor: pointer;" display="none"><path id="kity_path_280" fill="white" stroke="gray" d="M1011.5000135526061,833.5000153705478A6,6,0,1,1,999.5000135526061,833.5000153705478A6,6,0,1,1,1011.5000135526061,833.5000153705478"></path><path id="kity_path_281" fill="none" stroke="gray"></path></g><path id="node_outline28" fill="none" stroke="none" d="M1016.5000137910247,822.5000153705478h214a5,5,0,0,1,5,5v12a5,5,0,0,1,-5,5h-214a5,5,0,0,1,-5,-5v-12a5,5,0,0,1,5,-5z" stroke-width="3"></path><g id="node_text28" fill="black"><text id="kity_text_277" text-rendering="inherit" font-size="12" dy=".8em" y="825.7000153437257" x="1021.5000137910247">等价于new ((new Foo()).getName)();</text></g></g><g id="minder_node29"><g id="node_expander28" style="cursor: pointer;" display="none"><path id="kity_path_288" fill="white" stroke="gray" d="M1011.5000135526061,885.5000161454082A6,6,0,1,1,999.5000135526061,885.5000161454082A6,6,0,1,1,1011.5000135526061,885.5000161454082"></path><path id="kity_path_289" fill="none" stroke="gray"></path></g><path id="node_outline29" fill="none" stroke="none" d="M1016.5000137910247,874.5000161454082h153a5,5,0,0,1,5,5v12a5,5,0,0,1,-5,5h-153a5,5,0,0,1,-5,-5v-12a5,5,0,0,1,5,-5z" stroke-width="3"></path><g id="node_text29" fill="black"><text id="kity_text_285" text-rendering="inherit" font-size="12" dy=".8em" y="877.7000161185861" x="1021.5000137910247">先初始化Foo的实例化对象</text></g></g><g id="minder_node30"><g id="node_expander29" style="cursor: pointer;" display="none"><path id="kity_path_296" fill="white" stroke="gray" d="M1011.5000135526061,937.5000169202685A6,6,0,1,1,999.5000135526061,937.5000169202685A6,6,0,1,1,1011.5000135526061,937.5000169202685"></path><path id="kity_path_297" fill="none" stroke="gray"></path></g><path id="node_outline30" fill="none" stroke="none" d="M1016.5000137910247,926.5000169202685h304a5,5,0,0,1,5,5v12a5,5,0,0,1,-5,5h-304a5,5,0,0,1,-5,-5v-12a5,5,0,0,1,5,-5z" stroke-width="3"></path><g id="node_text30" fill="black"><text id="kity_text_293" text-rendering="inherit" font-size="12" dy=".8em" y="929.7000168934464" x="1021.5000137910247">然后将其原型上的getName函数作为构造函数再次new</text></g></g><g id="minder_node31"><g id="node_expander30" style="cursor: pointer;" display="none"><path id="kity_path_304" fill="white" stroke="gray" d="M1011.5000135526061,989.5000176951289A6,6,0,1,1,999.5000135526061,989.5000176951289A6,6,0,1,1,1011.5000135526061,989.5000176951289"></path><path id="kity_path_305" fill="none" stroke="gray"></path></g><path id="node_outline31" fill="none" stroke="none" d="M1016.5000137910247,978.5000176951289h78a5,5,0,0,1,5,5v12a5,5,0,0,1,-5,5h-78a5,5,0,0,1,-5,-5v-12a5,5,0,0,1,5,-5z" stroke-width="3"></path><g id="node_text31" fill="black"><text id="kity_text_301" text-rendering="inherit" font-size="12" dy=".8em" y="981.7000176683068" x="1021.5000137910247">最终结果为3</text></g></g><g id="minder_node27"><g id="node_expander26" style="cursor: pointer;"><path id="kity_path_272" fill="white" stroke="gray" d="M829.5000108405948,911.5000165328383A6,6,0,1,1,817.5000108405948,911.5000165328383A6,6,0,1,1,829.5000108405948,911.5000165328383"></path><path id="kity_path_273" fill="none" stroke="gray" d="M819.0000108405948,911.5000165328383L828.0000108405948,911.5000165328383"></path></g><path id="node_outline27" fill="none" stroke="none" d="M834.5000110790133,900.5000165328383h132a5,5,0,0,1,5,5v12a5,5,0,0,1,-5,5h-132a5,5,0,0,1,-5,-5v-12a5,5,0,0,1,5,-5z" stroke-width="3"></path><g id="node_text27" fill="black"><text id="kity_text_269" text-rendering="inherit" font-size="12" dy=".8em" y="903.7000165060163" x="839.5000110790133">考点：构造函数和原型</text></g></g><g id="minder_node9"><g id="node_expander8" style="cursor: pointer;" display="none"><path id="kity_path_108" fill="white" stroke="gray" d="M764.5000098720193,33.500003449618816A6,6,0,1,1,752.5000098720193,33.500003449618816A6,6,0,1,1,764.5000098720193,33.500003449618816"></path><path id="kity_path_109" fill="none" stroke="gray"></path></g><path id="node_outline9" fill="none" stroke="none" d="M769.5000101104379,22.500003449618816h186a5,5,0,0,1,5,5v12a5,5,0,0,1,-5,5h-186a5,5,0,0,1,-5,-5v-12a5,5,0,0,1,5,-5z" stroke-width="3"></path><g id="node_text9" fill="black"><text id="kity_text_105" text-rendering="inherit" font-size="12" dy=".8em" y="25.700003422796726" x="774.5000101104379">直接查找定义，第二条，结果为2</text></g></g><g id="minder_node16"><g id="node_expander15" style="cursor: pointer;" display="none"><path id="kity_path_164" fill="white" stroke="gray" d="M950.5000126436353,272.50000701099634A6,6,0,1,1,938.5000126436353,272.50000701099634A6,6,0,1,1,950.5000126436353,272.50000701099634"></path><path id="kity_path_165" fill="none" stroke="gray"></path></g><path id="node_outline16" fill="none" stroke="none" d="M955.5000128820539,261.50000701099634h157a5,5,0,0,1,5,5v12a5,5,0,0,1,-5,5h-157a5,5,0,0,1,-5,-5v-12a5,5,0,0,1,5,-5z" stroke-width="3"></path><g id="node_text16" fill="black"><text id="kity_text_161" text-rendering="inherit" font-size="12" dy=".8em" y="264.70000698417425" x="960.5000128820539">先运行function Foo() {&#xa0; &#xa0; &#xa0;}</text></g></g><g id="minder_node17"><g id="node_expander16" style="cursor: pointer;" display="none"><path id="kity_path_175" fill="white" stroke="gray" d="M950.5000126436353,324.5000077858567A6,6,0,1,1,938.5000126436353,324.5000077858567A6,6,0,1,1,950.5000126436353,324.5000077858567"></path><path id="kity_path_176" fill="none" stroke="gray"></path></g><path id="node_outline17" fill="none" stroke="none" d="M955.5000128820539,313.5000077858567h466a5,5,0,0,1,5,5v12a5,5,0,0,1,-5,5h-466a5,5,0,0,1,-5,-5v-12a5,5,0,0,1,5,-5z" stroke-width="3"></path><g id="node_text17" fill="black"><text id="kity_text_172" text-rendering="inherit" font-size="12" dy=".8em" y="316.70000775903463" x="960.5000128820539">然后getName&#xa0;= function () { alert (1); };，由于此处没有var声明，所以是全局作用域</text></g></g><g id="minder_node18"><g id="node_expander17" style="cursor: pointer;" display="none"><path id="kity_path_183" fill="white" stroke="gray" d="M950.5000126436353,376.5000085607171A6,6,0,1,1,938.5000126436353,376.5000085607171A6,6,0,1,1,950.5000126436353,376.5000085607171"></path><path id="kity_path_184" fill="none" stroke="gray"></path></g><path id="node_outline18" fill="none" stroke="none" d="M955.5000128820539,365.5000085607171h683a5,5,0,0,1,5,5v12a5,5,0,0,1,-5,5h-683a5,5,0,0,1,-5,-5v-12a5,5,0,0,1,5,-5z" stroke-width="3"></path><g id="node_text18" fill="black"><text id="kity_text_180" text-rendering="inherit" font-size="12" dy=".8em" y="368.700008533895" x="960.5000128820539">return this;因为是全局作用域，所以getName&#xa0;= function () { alert (1); };会覆盖掉前面的getName = function () { alert (4);};&#xa0;</text></g></g><g id="minder_node19"><g id="node_expander18" style="cursor: pointer;" display="none"><path id="kity_path_191" fill="white" stroke="gray" d="M950.5000126436353,428.5000093355775A6,6,0,1,1,938.5000126436353,428.5000093355775A6,6,0,1,1,950.5000126436353,428.5000093355775"></path><path id="kity_path_192" fill="none" stroke="gray"></path></g><path id="node_outline19" fill="none" stroke="none" d="M955.5000128820539,417.5000093355775h300a5,5,0,0,1,5,5v12a5,5,0,0,1,-5,5h-300a5,5,0,0,1,-5,-5v-12a5,5,0,0,1,5,-5z" stroke-width="3"></path><g id="node_text19" fill="black"><text id="kity_text_188" text-rendering="inherit" font-size="12" dy=".8em" y="420.7000093087554" x="960.5000128820539">结果为1，且此时getName&#xa0;= function () { alert (1); };</text></g></g><g id="minder_node14"><g id="node_expander13" style="cursor: pointer;"><path id="kity_path_148" fill="white" stroke="gray" d="M784.5000101700425,350.5000081732869A6,6,0,1,1,772.5000101700425,350.5000081732869A6,6,0,1,1,784.5000101700425,350.5000081732869"></path><path id="kity_path_149" fill="none" stroke="gray" d="M774.0000101700425,350.5000081732869L783.0000101700425,350.5000081732869"></path></g><path id="node_outline14" fill="none" stroke="none" d="M789.5000104084611,339.5000081732869h116a5,5,0,0,1,5,5v12a5,5,0,0,1,-5,5h-116a5,5,0,0,1,-5,-5v-12a5,5,0,0,1,5,-5z" stroke-width="3"></path><g id="node_text14" fill="black"><text id="kity_text_145" text-rendering="inherit" font-size="12" dy=".8em" y="342.7000081464648" x="794.5000104084611">考点：this和作用域</text></g></g><g id="minder_node11" opacity="1"><g id="node_expander10" style="cursor: pointer;" display="none"><path id="kity_path_124" fill="white" stroke="gray" d="M848.5000111237168,97.50000440329313A6,6,0,1,1,836.5000111237168,97.50000440329313A6,6,0,1,1,848.5000111237168,97.50000440329313"></path><path id="kity_path_125" fill="none" stroke="gray"></path></g><path id="node_outline11" fill="none" stroke="none" d="M853.5000113621354,86.50000440329313h216a5,5,0,0,1,5,5v12a5,5,0,0,1,-5,5h-216a5,5,0,0,1,-5,-5v-12a5,5,0,0,1,5,-5z" stroke-width="3"></path><g id="node_text11" fill="black"><text id="kity_text_121" text-rendering="inherit" font-size="12" dy=".8em" y="89.70000437647104" x="858.5000113621354">var getName; //undefined&#xa0; 定义提升</text></g></g><g id="minder_node15" opacity="1"><g id="node_expander14" style="cursor: pointer;" display="none"><path id="kity_path_156" fill="white" stroke="gray" d="M848.5000111237168,149.50000517815351A6,6,0,1,1,836.5000111237168,149.50000517815351A6,6,0,1,1,848.5000111237168,149.50000517815351"></path><path id="kity_path_157" fill="none" stroke="gray"></path></g><path id="node_outline15" fill="none" stroke="none" d="M853.5000113621354,138.50000517815351h331a5,5,0,0,1,5,5v12a5,5,0,0,1,-5,5h-331a5,5,0,0,1,-5,-5v-12a5,5,0,0,1,5,-5z" stroke-width="3"></path><g id="node_text15" fill="black"><text id="kity_text_153" text-rendering="inherit" font-size="12" dy=".8em" y="141.70000515133142" x="858.5000113621354">function getName() {&#xa0; alert(5); }&#xa0; &#xa0;函数声明被提升到最前面</text></g></g><g id="minder_node12" opacity="1"><g id="node_expander11" style="cursor: pointer;" display="none"><path id="kity_path_132" fill="white" stroke="gray" d="M847.5000111088157,197.50000589340925A6,6,0,1,1,835.5000111088157,197.50000589340925A6,6,0,1,1,847.5000111088157,197.50000589340925"></path><path id="kity_path_133" fill="none" stroke="gray"></path></g><path id="node_outline12" fill="none" stroke="none" d="M852.5000113472342,186.50000589340925h447a5,5,0,0,1,5,5v12a5,5,0,0,1,-5,5h-447a5,5,0,0,1,-5,-5v-12a5,5,0,0,1,5,-5z" stroke-width="3"></path><g id="node_text12" fill="black"><text id="kity_text_129" text-rendering="inherit" font-size="12" dy=".8em" y="189.70000586658716" x="857.5000113472342">getName = function () { alert (4);};&#xa0;函数表达式声明覆盖了被提到前面的函数声明</text></g></g><g id="minder_node13"><g id="node_expander12" style="cursor: pointer;" display="none"><path id="kity_path_140" fill="white" stroke="gray" d="M848.5000111237168,253.50000672787428A6,6,0,1,1,836.5000111237168,253.50000672787428A6,6,0,1,1,848.5000111237168,253.50000672787428"></path><path id="kity_path_141" fill="none" stroke="gray"></path></g><path id="node_outline13" fill="none" stroke="none" d="M853.5000113621354,242.50000672787428h54a5,5,0,0,1,5,5v12a5,5,0,0,1,-5,5h-54a5,5,0,0,1,-5,-5v-12a5,5,0,0,1,5,-5z" stroke-width="3"></path><g id="node_text13" fill="black"><text id="kity_text_137" text-rendering="inherit" font-size="12" dy=".8em" y="245.7000067010522" x="858.5000113621354">结果为4</text></g></g><g id="minder_node10"><g id="node_expander9" style="cursor: pointer;"><path id="kity_path_116" fill="white" stroke="gray" d="M703.5000089630485,175.5000055655837A6,6,0,1,1,691.5000089630485,175.5000055655837A6,6,0,1,1,703.5000089630485,175.5000055655837"></path><path id="kity_path_117" fill="none" stroke="gray" d="M693.0000089630485,175.5000055655837L702.0000089630485,175.5000055655837"></path></g><path id="node_outline10" fill="none" stroke="none" d="M708.500009201467,164.5000055655837h95a5,5,0,0,1,5,5v12a5,5,0,0,1,-5,5h-95a5,5,0,0,1,-5,-5v-12a5,5,0,0,1,5,-5z" stroke-width="3"></path><g id="node_text10" fill="black"><text id="kity_text_113" text-rendering="inherit" font-size="12" dy=".8em" y="167.70000553876162" x="713.500009201467">考点：变量提升</text></g></g><g id="minder_node20"><g id="node_expander19" style="cursor: pointer;" display="none"><path id="kity_path_199" fill="white" stroke="gray" d="M741.5000095292926,450.50000966340303A6,6,0,1,1,729.5000095292926,450.50000966340303A6,6,0,1,1,741.5000095292926,450.50000966340303"></path><path id="kity_path_200" fill="none" stroke="gray"></path></g><path id="node_outline20" fill="none" stroke="none" d="M746.5000097677112,439.50000966340303h150a5,5,0,0,1,5,5v12a5,5,0,0,1,-5,5h-150a5,5,0,0,1,-5,-5v-12a5,5,0,0,1,5,-5z" stroke-width="3"></path><g id="node_text20" fill="black"><text id="kity_text_196" text-rendering="inherit" font-size="12" dy=".8em" y="442.70000963658094" x="751.5000097677112">根据上一步可知：结果为1</text></g></g></g></g></svg>